<svg width="60" height="60" viewBox="0 0 60 60" fill="none" xmlns="http://www.w3.org/2000/svg">
<path d="M28.0769 34V46C28.0769 47.6667 27.516 49.0833 26.3942 50.25C25.2724 51.4167 23.9103 52 22.3077 52H10.7692C9.16667 52 7.80449 51.4167 6.68269 50.25C5.5609 49.0833 5 47.6667 5 46V24C5 21.8333 5.40565 19.7656 6.21695 17.7969C7.02825 15.8281 8.125 14.125 9.50721 12.6875C10.8894 11.25 12.527 10.1094 14.4201 9.26562C16.3131 8.42188 18.3013 8 20.3846 8H22.3077C22.8285 8 23.2792 8.19792 23.6599 8.59375C24.0405 8.98958 24.2308 9.45833 24.2308 10V14C24.2308 14.5417 24.0405 15.0104 23.6599 15.4062C23.2792 15.8021 22.8285 16 22.3077 16H20.3846C18.2612 16 16.4483 16.7812 14.9459 18.3438C13.4435 19.9062 12.6923 21.7917 12.6923 24V25C12.6923 25.8333 12.9728 26.5417 13.5337 27.125C14.0946 27.7083 14.7756 28 15.5769 28H22.3077C23.9103 28 25.2724 28.5833 26.3942 29.75C27.516 30.9167 28.0769 32.3333 28.0769 34ZM55 34V46C55 47.6667 54.4391 49.0833 53.3173 50.25C52.1955 51.4167 50.8333 52 49.2308 52H37.6923C36.0897 52 34.7276 51.4167 33.6058 50.25C32.484 49.0833 31.9231 47.6667 31.9231 46V24C31.9231 21.8333 32.3287 19.7656 33.14 17.7969C33.9513 15.8281 35.0481 14.125 36.4303 12.6875C37.8125 11.25 39.4501 10.1094 41.3431 9.26562C43.2362 8.42188 45.2244 8 47.3077 8H49.2308C49.7516 8 50.2023 8.19792 50.5829 8.59375C50.9635 8.98958 51.1538 9.45833 51.1538 10V14C51.1538 14.5417 50.9635 15.0104 50.5829 15.4062C50.2023 15.8021 49.7516 16 49.2308 16H47.3077C45.1843 16 43.3714 16.7812 41.869 18.3438C40.3666 19.9062 39.6154 21.7917 39.6154 24V25C39.6154 25.8333 39.8958 26.5417 40.4567 27.125C41.0176 27.7083 41.6987 28 42.5 28H49.2308C50.8333 28 52.1955 28.5833 53.3173 29.75C54.4391 30.9167 55 32.3333 55 34Z" fill="#AFBC25"/>
</svg>
