<svg width="40" height="40" viewBox="0 0 40 40" fill="none" xmlns="http://www.w3.org/2000/svg">
<path d="M28.332 33.3339C29.2161 33.3339 30.0639 32.9827 30.6891 32.3576C31.3142 31.7325 31.6654 30.8846 31.6654 30.0006C31.6654 29.1165 31.3142 28.2687 30.6891 27.6435C30.0639 27.0184 29.2161 26.6672 28.332 26.6672C27.448 26.6672 26.6001 27.0184 25.975 27.6435C25.3499 28.2687 24.9987 29.1165 24.9987 30.0006C24.9987 30.8846 25.3499 31.7325 25.975 32.3576C26.6001 32.9827 27.448 33.3339 28.332 33.3339ZM11.6654 33.3339C12.5494 33.3339 13.3973 32.9827 14.0224 32.3576C14.6475 31.7325 14.9987 30.8846 14.9987 30.0006C14.9987 29.1165 14.6475 28.2687 14.0224 27.6435C13.3973 27.0184 12.5494 26.6672 11.6654 26.6672C10.7813 26.6672 9.93346 27.0184 9.30834 27.6435C8.68322 28.2687 8.33203 29.1165 8.33203 30.0006C8.33203 30.8846 8.68322 31.7325 9.30834 32.3576C9.93346 32.9827 10.7813 33.3339 11.6654 33.3339Z" stroke="#FE0316" stroke-width="2.5" stroke-linecap="round" stroke-linejoin="round"/>
<path d="M31.6654 18.3337H36.6654M36.6654 18.3337V21.667C36.6654 25.5953 36.6654 27.5587 35.4454 28.7803C34.6337 29.592 33.4937 29.8637 31.6654 29.9537M36.6654 18.3337L34.5387 14.3837C33.3887 12.247 32.8137 11.1787 31.8254 10.5903C30.8387 10.0003 29.627 10.0003 27.2004 10.0003H24.1654M8.33203 29.9537C6.5037 29.8637 5.36536 29.592 4.55203 28.7803C3.33203 27.5587 3.33203 25.5953 3.33203 21.667V15.0003C3.33203 11.072 3.33203 9.10699 4.55203 7.88699C5.77203 6.66699 7.73703 6.66699 11.6654 6.66699H17.1654C19.027 6.66699 19.957 6.66699 20.7104 6.91199C21.4607 7.15583 22.1428 7.57379 22.7007 8.13169C23.2586 8.6896 23.6765 9.37162 23.9204 10.122C24.1654 10.8753 24.1654 11.8053 24.1654 13.667C24.1654 15.7003 24.1654 16.7187 23.6087 17.407C23.4987 17.5425 23.3754 17.6659 23.2387 17.777C22.5504 18.3337 21.5337 18.3337 19.4987 18.3337H13.332M24.9987 30.0003H14.9987" stroke="#FE0316" stroke-width="2.5" stroke-linecap="round" stroke-linejoin="round"/>
<path d="M16.6654 21.6667C16.6654 21.6667 15.5454 20.74 14.5604 19.86C13.8654 19.3 13.332 18.8217 13.332 18.3417C13.332 17.9167 13.7487 17.5217 14.4254 16.9017C15.3854 16.1033 16.6654 15 16.6654 15" stroke="#FE0316" stroke-width="2.5" stroke-linecap="round" stroke-linejoin="round"/>
</svg>
