<svg width="30" height="30" viewBox="0 0 30 30" fill="none" xmlns="http://www.w3.org/2000/svg">
<path fill-rule="evenodd" clip-rule="evenodd" d="M14.9996 26.25C17.032 26.2502 19.0264 25.6998 20.771 24.6574C22.5157 23.6149 23.9453 22.1193 24.9081 20.3295C25.8709 18.5397 26.3309 16.5225 26.2391 14.4922C26.1474 12.462 25.5074 10.4945 24.3871 8.79875L15.4434 18.7362C15.0256 19.2005 14.4492 19.4916 13.8276 19.5522C13.206 19.6128 12.5842 19.4386 12.0846 19.0638L7.99964 16C7.73442 15.8011 7.55909 15.505 7.5122 15.1768C7.46532 14.8486 7.55073 14.5152 7.74964 14.25C7.94855 13.9848 8.24467 13.8094 8.57286 13.7626C8.90105 13.7157 9.23442 13.8011 9.49964 14L13.5846 17.0638L22.7671 6.8625C21.4369 5.59264 19.8156 4.66825 18.0453 4.17028C16.2749 3.6723 14.4095 3.61593 12.6123 4.00609C10.8151 4.39625 9.14098 5.22105 7.73648 6.40827C6.33198 7.59548 5.23994 9.10892 4.55599 10.8161C3.87203 12.5232 3.61701 14.372 3.81326 16.2005C4.00951 18.0291 4.65105 19.7816 5.68169 21.3047C6.71233 22.8279 8.10066 24.0751 9.72511 24.9372C11.3496 25.7994 13.1606 26.2501 14.9996 26.25Z" fill="#FE0316"/>
</svg>
