<svg width="40" height="40" viewBox="0 0 40 40" fill="none" xmlns="http://www.w3.org/2000/svg">
<path d="M10 16.667H16.6667" stroke="#FE0316" stroke-width="2.5" stroke-linecap="round" stroke-linejoin="round"/>
<path d="M36.6633 20.833C36.6633 20.7047 36.6667 19.9447 36.6633 19.8913C36.6033 19.0563 35.8883 18.3913 34.9883 18.3363C34.93 18.333 34.8617 18.333 34.7217 18.333H30.385C27.41 18.333 25 20.5713 25 23.333C25 26.0947 27.4117 28.333 30.3833 28.333H34.7217C34.8617 28.333 34.93 28.333 34.9883 28.3297C35.8883 28.2747 36.605 27.6097 36.6633 26.7747C36.6667 26.7213 36.6667 25.9613 36.6667 25.833" stroke="#FE0316" stroke-width="2.5" stroke-linecap="round"/>
<path d="M29.9987 25.0003C30.9192 25.0003 31.6654 24.2541 31.6654 23.3337C31.6654 22.4132 30.9192 21.667 29.9987 21.667C29.0782 21.667 28.332 22.4132 28.332 23.3337C28.332 24.2541 29.0782 25.0003 29.9987 25.0003Z" fill="#FE0316"/>
<path d="M16.6654 36.6666H21.6654C27.9504 36.6666 31.0937 36.6666 33.0454 34.7132C34.3937 33.3666 34.812 31.4532 34.9404 28.3332M34.9404 18.3332C34.8104 15.2132 34.3937 13.2999 33.0454 11.9532C31.0937 9.9999 27.9504 9.9999 21.6654 9.9999H16.6654C10.3804 9.9999 7.23703 9.9999 5.28536 11.9532C3.33203 13.9049 3.33203 17.0482 3.33203 23.3332C3.33203 29.6182 3.33203 32.7616 5.28536 34.7132C6.3737 35.8032 7.83203 36.2849 9.9987 36.4966M9.9987 9.9999L16.2237 5.87157C17.0991 5.30213 18.121 4.99902 19.1654 4.99902C20.2097 4.99902 21.2316 5.30213 22.107 5.87157L28.332 9.9999" stroke="#FE0316" stroke-width="2.5" stroke-linecap="round"/>
</svg>
