<svg width="32" height="32" viewBox="0 0 32 32" fill="none" xmlns="http://www.w3.org/2000/svg">
<path d="M11.1761 3.30548L10.0289 3.65108C9.0074 3.95913 8.09518 4.55257 7.39958 5.36155C6.70398 6.17053 6.25396 7.16138 6.10248 8.21748C5.62728 11.5263 6.68968 15.3951 9.25128 19.8319C11.8065 24.2575 14.6193 27.1087 17.7153 28.3567C18.71 28.7576 19.799 28.8644 20.8527 28.6645C21.9064 28.4645 22.8805 27.9662 23.6593 27.2287L24.5265 26.4063C25.0896 25.8733 25.4401 25.1541 25.5128 24.3822C25.5854 23.6102 25.3754 22.8382 24.9217 22.2095L22.7521 19.2015C22.4588 18.7954 22.0457 18.4913 21.5708 18.3317C21.096 18.1722 20.5831 18.1653 20.1041 18.3119L16.8225 19.3151L16.7377 19.3311C16.3761 19.3839 15.5409 18.6015 14.5009 16.7999C13.4129 14.9151 13.1889 13.8127 13.4881 13.5279L15.1569 11.9711C15.7665 11.4018 16.183 10.6562 16.3479 9.83857C16.5129 9.02094 16.4181 8.1722 16.0769 7.41108L15.0177 5.05748C14.6992 4.34923 14.134 3.78097 13.4275 3.45862C12.721 3.13628 11.9197 3.08185 11.1761 3.30548ZM13.5617 5.71348L14.6177 8.06708C14.8226 8.52359 14.8797 9.03274 14.781 9.52331C14.6824 10.0139 14.4328 10.4613 14.0673 10.8031L12.3937 12.3615C11.3217 13.3759 11.6769 15.1071 13.1169 17.5999C14.4705 19.9455 15.7057 21.1039 17.0337 20.9023L17.2321 20.8607L20.5729 19.8415C20.7326 19.7924 20.9036 19.7946 21.062 19.8477C21.2204 19.9008 21.3582 20.0021 21.4561 20.1375L23.6257 23.1455C23.8529 23.4598 23.9581 23.8459 23.9219 24.2321C23.8857 24.6182 23.7105 24.9781 23.4289 25.2447L22.5601 26.0671C22.0038 26.5935 21.3081 26.9492 20.5557 27.0919C19.8032 27.2345 19.0256 27.1582 18.3153 26.8719C15.5985 25.7775 13.0305 23.1743 10.6385 19.0319C8.24008 14.8799 7.26888 11.3487 7.68648 8.44468C7.79458 7.69017 8.116 6.98225 8.61291 6.40428C9.10981 5.8263 9.76151 5.40233 10.4913 5.18228L11.6385 4.83668C12.0104 4.72492 12.4103 4.75225 12.7636 4.91358C13.1168 5.0749 13.3994 5.35921 13.5585 5.71348" fill="#FE0316"/>
</svg>
