<svg width="40" height="40" viewBox="0 0 40 40" fill="none" xmlns="http://www.w3.org/2000/svg">
<path fill-rule="evenodd" clip-rule="evenodd" d="M20 8.54545C13.8903 8.54545 9.28571 12.7115 9.28571 17.4545V19.5944C9.42629 19.5825 9.57029 19.5758 9.71429 19.5758H14.8571C15.1981 19.5758 15.5252 19.7098 15.7663 19.9485C16.0074 20.1872 16.1429 20.5109 16.1429 20.8485V32.7273C16.1429 33.0648 16.0074 33.3885 15.7663 33.6272C15.5252 33.8659 15.1981 34 14.8571 34H9.71429C8.46398 34 7.26488 33.5083 6.38078 32.6332C5.49668 31.758 5 30.571 5 29.3333V24.2424C5 22.7932 5.66857 21.4984 6.71429 20.6432V17.4545C6.71429 10.9518 12.8549 6 20 6C27.1451 6 33.2857 10.9518 33.2857 17.4545V20.6432C34.3314 21.4984 35 22.7932 35 24.2424V29.3333C35 30.571 34.5033 31.758 33.6192 32.6332C32.7351 33.5083 31.536 34 30.2857 34H25.1429C24.8019 34 24.4748 33.8659 24.2337 33.6272C23.9926 33.3885 23.8571 33.0648 23.8571 32.7273V20.8485C23.8571 20.5109 23.9926 20.1872 24.2337 19.9485C24.4748 19.7098 24.8019 19.5758 25.1429 19.5758H30.2857C30.4297 19.5758 30.5737 19.5825 30.7143 19.5944V17.4545C30.7143 12.7115 26.1097 8.54545 20 8.54545ZM9.71429 22.1212C8.53143 22.1212 7.57143 23.0715 7.57143 24.2424V29.3333C7.57143 30.5042 8.53143 31.4545 9.71429 31.4545H13.5714V22.1212H9.71429ZM32.4286 24.2424C32.4286 23.0715 31.4686 22.1212 30.2857 22.1212H26.4286V31.4545H30.2857C31.4686 31.4545 32.4286 30.5042 32.4286 29.3333V24.2424Z" fill="#FE0316"/>
</svg>
