<svg width="32" height="32" viewBox="0 0 32 32" fill="none" xmlns="http://www.w3.org/2000/svg">
<path d="M10.0076 26.3848L8.00977 29.9895" stroke="#FE0316" stroke-width="2" stroke-linecap="round" stroke-linejoin="round"/>
<path d="M21.9961 26.3848L23.9939 29.9895" stroke="#FE0316" stroke-width="2" stroke-linecap="round" stroke-linejoin="round"/>
<path d="M15.9991 27.9905C22.6207 27.9905 27.9885 22.6226 27.9885 16.0011C27.9885 9.37955 22.6207 4.01172 15.9991 4.01172C9.37759 4.01172 4.00977 9.37955 4.00977 16.0011C4.00977 22.6226 9.37759 27.9905 15.9991 27.9905Z" stroke="#FE0316" stroke-width="2" stroke-linecap="round" stroke-linejoin="round"/>
<path d="M4.41301 12.8052C3.49256 12.1153 2.79004 11.1751 2.38927 10.0969C1.98851 9.01869 1.90642 7.84793 2.1528 6.72433C2.39918 5.60074 2.96363 4.57175 3.77879 3.76017C4.59396 2.94858 5.62541 2.38865 6.75008 2.14721C7.87475 1.90577 9.04513 1.99301 10.1216 2.39851C11.198 2.80401 12.1351 3.51066 12.8209 4.43412" stroke="#FE0316" stroke-width="2" stroke-linecap="round" stroke-linejoin="round"/>
<path d="M16.002 4.01189L16.002 2.01367" stroke="#FE0316" stroke-width="2" stroke-linecap="round" stroke-linejoin="round"/>
<path d="M16.002 10.0059V16.0005" stroke="#FE0316" stroke-width="2" stroke-linecap="round" stroke-linejoin="round"/>
<path d="M16.002 16.002L20.2408 20.2408" stroke="#FE0316" stroke-width="2" stroke-linecap="round" stroke-linejoin="round"/>
<path d="M27.5915 12.8052C28.512 12.1153 29.2145 11.1751 29.6152 10.0969C30.016 9.01869 30.0981 7.84793 29.8517 6.72433C29.6053 5.60074 29.0409 4.57175 28.2257 3.76016C27.4106 2.94858 26.3791 2.38865 25.2544 2.14721C24.1298 1.90577 22.9594 1.99301 21.8829 2.39851C20.8065 2.80401 19.8694 3.51065 19.1836 4.43412" stroke="#FE0316" stroke-width="2" stroke-linecap="round" stroke-linejoin="round"/>
</svg>
