<svg width="32" height="32" viewBox="0 0 32 32" fill="none" xmlns="http://www.w3.org/2000/svg">
<path d="M8.66635 11.9993H7.33302M13.9997 11.9993H12.6664M8.66635 7.99935H7.33302M13.9997 7.99935H12.6664M24.6664 19.9993H23.333M24.6664 14.666H23.333M18.6664 10.666V29.3327H23.9997C26.5144 29.3327 27.7704 29.3327 28.5517 28.5513C29.333 27.77 29.333 26.514 29.333 23.9993V15.9993C29.333 13.4847 29.333 12.2287 28.5517 11.4473C27.7704 10.666 26.5144 10.666 23.9997 10.666H18.6664ZM18.6664 10.666C18.6664 6.89535 18.6664 5.00868 17.4944 3.83802C16.3237 2.66602 14.437 2.66602 10.6664 2.66602C6.89569 2.66602 5.00902 2.66602 3.83835 3.83802C2.66635 5.00868 2.66635 6.89535 2.66635 10.666V14.666M8.14769 17.6727C8.39435 17.446 8.51702 17.3327 8.66635 17.3327C8.81569 17.3327 8.93835 17.446 9.18502 17.6727L10.1357 18.5487C10.2504 18.654 10.3077 18.7073 10.3784 18.7327C10.4504 18.7593 10.5277 18.7567 10.685 18.75L11.9677 18.6993C12.2984 18.686 12.4637 18.6807 12.577 18.7753C12.6904 18.87 12.713 19.034 12.757 19.362L12.933 20.6767C12.9544 20.8287 12.9637 20.9033 13.001 20.97C13.0384 21.034 13.0984 21.0807 13.2184 21.1753L14.253 21.9887C14.509 22.1914 14.637 22.2913 14.6624 22.4353C14.6877 22.5793 14.601 22.718 14.429 22.9953L13.729 24.1247C13.649 24.254 13.609 24.3194 13.5957 24.3914C13.5824 24.4634 13.5984 24.5393 13.6304 24.6887L13.9077 25.9927C13.977 26.3127 14.0104 26.4727 13.937 26.6007C13.8637 26.7287 13.7077 26.7793 13.397 26.8807L12.1624 27.282C12.0157 27.33 11.9424 27.354 11.8837 27.402C11.8264 27.4513 11.7904 27.5207 11.7197 27.658L11.117 28.8193C10.9637 29.1167 10.8864 29.2647 10.7464 29.3153C10.6064 29.366 10.453 29.302 10.1437 29.174L8.95969 28.6834C8.81435 28.6234 8.74235 28.5927 8.66635 28.5927C8.59035 28.5927 8.51835 28.6234 8.37302 28.6834L7.18902 29.174C6.87969 29.302 6.72635 29.366 6.58635 29.3153C6.44635 29.2647 6.36902 29.1153 6.21569 28.8193L5.61302 27.658C5.54102 27.5207 5.50635 27.4513 5.44902 27.4033C5.39169 27.3553 5.31702 27.33 5.17035 27.2833L3.93569 26.8807C3.62502 26.7793 3.46902 26.7287 3.39569 26.6007C3.32235 26.4727 3.35569 26.314 3.42502 25.9927L3.70235 24.6887C3.73435 24.5393 3.75035 24.4647 3.73702 24.3927C3.70968 24.2962 3.66445 24.2058 3.60369 24.126L2.90235 22.9953C2.73169 22.718 2.64502 22.5793 2.67035 22.4353C2.69569 22.2913 2.82369 22.1913 3.07969 21.99L4.11435 21.1767C4.23435 21.0807 4.29435 21.034 4.33169 20.9687C4.36902 20.9033 4.37835 20.8287 4.39835 20.6753L4.57569 19.362C4.61969 19.0353 4.64235 18.87 4.75569 18.7753C4.86902 18.6807 5.03435 18.686 5.36502 18.6993L6.64902 18.75C6.80502 18.7567 6.88235 18.7593 6.95435 18.7327C7.02502 18.706 7.08235 18.654 7.19702 18.5487L8.14769 17.6727Z" stroke="#FE0316" stroke-width="1.5" stroke-linecap="round" stroke-linejoin="round"/>
</svg>
