<svg width="32" height="32" viewBox="0 0 32 32" fill="none" xmlns="http://www.w3.org/2000/svg">
<path d="M18.666 29.3327V10.666M18.666 29.3327H10.666C6.89535 29.3327 5.00868 29.3327 3.83802 28.1607C2.66602 26.99 2.66602 25.1033 2.66602 21.3327V10.666C2.66602 6.89535 2.66602 5.00868 3.83802 3.83802C5.00868 2.66602 6.89535 2.66602 10.666 2.66602C14.4367 2.66602 16.3233 2.66602 17.494 3.83802C18.666 5.00868 18.666 6.89535 18.666 10.666M18.666 29.3327H23.9993C26.514 29.3327 27.77 29.3327 28.5513 28.5513C29.3327 27.77 29.3327 26.514 29.3327 23.9993V15.9993C29.3327 13.4847 29.3327 12.2287 28.5513 11.4473C27.77 10.666 26.514 10.666 23.9993 10.666H18.666M8.66602 14.666H7.33268M13.9993 14.666H12.666M8.66602 9.33268H7.33268M8.66602 19.9993H7.33268M13.9993 9.33268H12.666M13.9993 19.9993H12.666M24.666 19.9993H23.3327M24.666 14.666H23.3327" stroke="#FE0316" stroke-width="1.5" stroke-linecap="round" stroke-linejoin="round"/>
</svg>
