<svg width="24" height="24" viewBox="0 0 24 24" fill="none" xmlns="http://www.w3.org/2000/svg">
<path d="M18.3274 22.4996C17.4124 22.4996 16.1271 22.1686 14.2024 21.0933C11.862 19.7808 10.0516 18.5691 7.72383 16.2474C5.47946 14.0044 4.38727 12.5522 2.85868 9.77066C1.1318 6.63003 1.42618 4.98378 1.75524 4.28019C2.14712 3.43925 2.72555 2.93628 3.47321 2.43707C3.89787 2.15883 4.34727 1.92032 4.81571 1.72457C4.86258 1.70441 4.90618 1.68519 4.94508 1.66785C5.17712 1.56332 5.52868 1.40535 5.97399 1.5741C6.27118 1.68566 6.53649 1.91394 6.9518 2.3241C7.80352 3.1641 8.96743 5.03488 9.3968 5.95363C9.68508 6.57285 9.87586 6.9816 9.87633 7.44003C9.87633 7.97675 9.60633 8.39066 9.27868 8.83738C9.21727 8.92128 9.15633 9.00144 9.09727 9.07925C8.74055 9.548 8.66227 9.68347 8.71383 9.92535C8.81837 10.4114 9.5979 11.8585 10.879 13.1368C12.1601 14.415 13.5654 15.1453 14.0534 15.2494C14.3056 15.3033 14.4438 15.2218 14.9276 14.8524C14.997 14.7994 15.0682 14.7446 15.1427 14.6897C15.6424 14.318 16.0371 14.055 16.5612 14.055H16.564C17.0201 14.055 17.4106 14.2528 18.0574 14.5791C18.9012 15.0047 20.8282 16.1536 21.6734 17.0063C22.0845 17.4207 22.3137 17.685 22.4257 17.9818C22.5945 18.4285 22.4356 18.7786 22.332 19.013C22.3146 19.0519 22.2954 19.0946 22.2752 19.1419C22.0779 19.6095 21.838 20.058 21.5585 20.4816C21.0602 21.2269 20.5554 21.8039 19.7126 22.1963C19.2798 22.401 18.8062 22.5047 18.3274 22.4996Z" fill="white"/>
</svg>
