<svg width="40" height="40" viewBox="0 0 40 40" fill="none" xmlns="http://www.w3.org/2000/svg">
<path d="M10.6 11.6877V11.0897C10.6 8.81728 9.04 7.02326 7.12 6.42525C7.72 5.94684 8.2 5.22924 8.2 4.39203C8.2 3.07641 7.12 2 5.8 2C4.48 2 3.4 3.07641 3.4 4.39203C3.4 5.22924 3.88 5.94684 4.48 6.42525C2.44 7.02326 1 8.81728 1 11.0897V11.6877M25 20.0598H30.4C34 20.0598 37 17.0698 37 13.4817C37 9.89369 34 6.90365 30.4 6.90365H13M13 20.0598H7.6C4 20.0598 1 23.0498 1 26.6379C1 30.2259 4 33.2159 7.6 33.2159H25M37 38V37.402C37 35.2492 35.56 33.3356 33.52 32.8571C34.12 32.3787 34.6 31.6611 34.6 30.8239C34.6 29.5083 33.52 28.4319 32.2 28.4319C30.88 28.4319 29.8 29.5083 29.8 30.8239C29.8 31.6611 30.28 32.3787 30.88 32.8571C28.84 33.4552 27.4 35.2492 27.4 37.402V38M22.6 23.6478H15.4V16.4718H22.6V23.6478Z" stroke="#FE0316" stroke-width="2" stroke-miterlimit="10" stroke-linejoin="round"/>
<path d="M22.6709 38.6838L26.5797 34.7364L22.6709 30.7891" stroke="#FE0316" stroke-width="0.961564" stroke-miterlimit="10"/>
</svg>
