<svg width="32" height="32" viewBox="0 0 32 32" fill="none" xmlns="http://www.w3.org/2000/svg">
<path d="M29.9461 8.00065C28.9194 8.46732 27.8127 8.77398 26.6661 8.92065C27.8394 8.21398 28.7461 7.09398 29.1727 5.74732C28.0661 6.41398 26.8394 6.88065 25.5461 7.14732C24.4927 6.00065 23.0127 5.33398 21.3327 5.33398C18.1994 5.33398 15.6394 7.89398 15.6394 11.054C15.6394 11.5073 15.6927 11.9473 15.7861 12.3607C11.0394 12.1207 6.81273 9.84065 3.9994 6.38732C3.50607 7.22732 3.22607 8.21398 3.22607 9.25398C3.22607 11.2407 4.22607 13.0007 5.77273 14.0007C4.82607 14.0007 3.94607 13.734 3.17273 13.334V13.374C3.17273 16.1473 5.14607 18.4673 7.7594 18.9873C6.92052 19.2179 6.03945 19.2499 5.18607 19.0807C5.54821 20.2173 6.25745 21.2119 7.21409 21.9246C8.17073 22.6373 9.32666 23.0322 10.5194 23.054C8.49763 24.6547 5.99141 25.5198 3.41273 25.5073C2.9594 25.5073 2.50607 25.4807 2.05273 25.4273C4.58607 27.054 7.5994 28.0007 10.8261 28.0007C21.3327 28.0007 27.1061 19.2807 27.1061 11.7207C27.1061 11.4673 27.1061 11.2273 27.0927 10.974C28.2127 10.174 29.1727 9.16065 29.9461 8.00065Z" fill="#FE0316"/>
</svg>
