<svg width="32" height="32" viewBox="0 0 32 32" fill="none" xmlns="http://www.w3.org/2000/svg">
<g clip-path="url(#clip0_404_9227)">
<path fill-rule="evenodd" clip-rule="evenodd" d="M15.9993 5.33398C17.1393 5.33398 18.3087 5.36332 19.442 5.41132L20.7807 5.47532L22.062 5.55132L23.262 5.63265L24.358 5.71798C25.5474 5.80902 26.6666 6.31658 27.5187 7.15137C28.3708 7.98616 28.9012 9.0947 29.0167 10.282L29.07 10.8487L29.17 12.062C29.2633 13.3193 29.3327 14.69 29.3327 16.0007C29.3327 17.3113 29.2633 18.682 29.17 19.9393L29.07 21.1527C29.0527 21.3473 29.0353 21.5353 29.0167 21.7193C28.9012 22.9068 28.3706 24.0155 27.5182 24.8503C26.6658 25.6852 25.5463 26.1926 24.3567 26.2833L23.2633 26.3673L22.0633 26.45L20.7807 26.526L19.442 26.59C18.2951 26.6398 17.1473 26.6656 15.9993 26.6673C14.8514 26.6656 13.7036 26.6398 12.5567 26.59L11.218 26.526L9.93668 26.45L8.73668 26.3673L7.64068 26.2833C6.45128 26.1923 5.33208 25.6847 4.47998 24.8499C3.62787 24.0151 3.09745 22.9066 2.98202 21.7193L2.92868 21.1527L2.82868 19.9393C2.72673 18.6288 2.67247 17.3151 2.66602 16.0007C2.66602 14.69 2.73535 13.3193 2.82868 12.062L2.92868 10.8487C2.94602 10.654 2.96335 10.466 2.98202 10.282C3.0974 9.09491 3.62764 7.98654 4.47947 7.15178C5.3313 6.31701 6.45019 5.80932 7.63935 5.71798L8.73402 5.63265L9.93402 5.55132L11.2167 5.47532L12.5553 5.41132C13.7027 5.36149 14.8509 5.33571 15.9993 5.33398ZM13.3327 12.7673V19.234C13.3327 19.85 13.9993 20.234 14.5327 19.9273L20.1327 16.694C20.2545 16.6238 20.3558 16.5228 20.4261 16.4011C20.4965 16.2794 20.5336 16.1413 20.5336 16.0007C20.5336 15.86 20.4965 15.7219 20.4261 15.6002C20.3558 15.4785 20.2545 15.3775 20.1327 15.3073L14.5327 12.0753C14.411 12.0051 14.273 11.9681 14.1326 11.9681C13.9921 11.9682 13.8541 12.0052 13.7325 12.0754C13.6108 12.1457 13.5098 12.2468 13.4397 12.3685C13.3695 12.4902 13.3326 12.6282 13.3327 12.7687V12.7673Z" fill="#FE0316"/>
</g>
<defs>
<clipPath id="clip0_404_9227">
<rect width="32" height="32" fill="white"/>
</clipPath>
</defs>
</svg>
