<svg width="40" height="40" viewBox="0 0 40 40" fill="none" xmlns="http://www.w3.org/2000/svg">
<g clip-path="url(#clip0_411_10133)">
<path d="M0 0C2.9902 0 5.98041 0 9.06122 0C9.29821 1.19717 9.29821 1.19717 9.39238 1.72729C9.40307 1.78717 9.41376 1.84704 9.42445 1.90692C9.44636 2.02978 9.46819 2.15266 9.48997 2.27554C9.51779 2.43247 9.54591 2.58934 9.57409 2.7462C9.59605 2.86868 9.61782 2.9912 9.63953 3.11373C9.64983 3.17166 9.66019 3.22958 9.67063 3.28749C9.68508 3.36778 9.69924 3.44812 9.71338 3.52846C9.72146 3.57388 9.72955 3.61931 9.73788 3.66611C9.75499 3.793 9.75629 3.91337 9.7551 4.04124C9.77924 4.04121 9.80337 4.04119 9.82824 4.04116C12.4563 4.03836 15.0843 4.03577 17.7124 4.03425C17.7517 4.03423 17.7909 4.03421 17.8314 4.03418C18.6848 4.03369 19.5382 4.03323 20.3917 4.03281C20.8102 4.03261 21.2287 4.03239 21.6472 4.03218C21.6889 4.03215 21.7305 4.03213 21.7734 4.03211C23.123 4.03141 24.4725 4.03017 25.822 4.02865C27.209 4.0271 28.596 4.02608 29.9831 4.02575C30.179 4.0257 30.375 4.02564 30.571 4.02559C30.6096 4.02558 30.6481 4.02557 30.6879 4.02555C31.3083 4.02536 31.9288 4.02459 32.5493 4.02362C33.1733 4.02264 33.7974 4.02227 34.4214 4.02252C34.792 4.02264 35.1626 4.02231 35.5331 4.02131C35.781 4.02069 36.0288 4.02068 36.2767 4.02114C36.4177 4.02139 36.5588 4.02138 36.6998 4.02064C37.3857 4.01764 38.0408 4.02255 38.6633 4.35309C38.7033 4.37405 38.7033 4.37405 38.7442 4.39543C39.3647 4.73694 39.7597 5.29745 39.9592 5.97938C39.9706 6.01606 39.9706 6.01606 39.9823 6.05348C40.2233 7.29052 39.46 8.71923 39.0632 9.85665C38.9994 10.0396 38.936 10.2227 38.8726 10.4058C38.8611 10.4391 38.8496 10.4724 38.8377 10.5067C38.8147 10.5729 38.7918 10.6392 38.7689 10.7055C38.7345 10.8046 38.7001 10.9038 38.6657 11.0029C38.4766 11.5479 38.2892 12.0935 38.102 12.6392C37.8739 13.3041 37.645 13.9687 37.4146 14.6328C37.391 14.7009 37.3674 14.769 37.3438 14.8371C37.3255 14.8897 37.3255 14.8897 37.3069 14.9432C37.1461 15.407 36.9858 15.8709 36.8255 16.3349C36.7669 16.5046 36.7082 16.6743 36.6494 16.844C36.4661 17.3739 36.2831 17.9039 36.102 18.4346C36.0611 18.5542 36.0202 18.6738 35.9793 18.7934C35.9429 18.9001 35.9067 19.0069 35.8706 19.1137C35.7646 19.4249 35.6525 19.7315 35.5228 20.0335C35.5114 20.0601 35.5 20.0867 35.4883 20.1142C35.3863 20.3454 35.2608 20.5471 35.102 20.7423C35.0808 20.7688 35.0596 20.7953 35.0378 20.8226C34.6936 21.2108 34.1659 21.3711 33.6643 21.4089C33.4145 21.4202 33.1647 21.4181 32.9147 21.4169C32.8304 21.417 32.746 21.4171 32.6617 21.4173C32.4312 21.4175 32.2008 21.417 31.9703 21.4164C31.7213 21.4159 31.4723 21.4161 31.2233 21.4162C30.7923 21.4162 30.3613 21.4158 29.9303 21.4151C29.4785 21.4144 29.0267 21.4139 28.5749 21.4138C28.5468 21.4138 28.5186 21.4138 28.4896 21.4138C28.3467 21.4137 28.2038 21.4137 28.0609 21.4137C27.0498 21.4134 26.0387 21.4126 25.0276 21.4114C24.0456 21.4103 23.0636 21.4094 22.0816 21.4089C22.0513 21.4088 22.021 21.4088 21.9898 21.4088C21.6856 21.4086 21.3813 21.4085 21.0771 21.4083C20.4574 21.408 19.8377 21.4077 19.218 21.4073C19.1752 21.4073 19.1752 21.4073 19.1316 21.4072C17.2306 21.4061 15.3296 21.4041 13.4286 21.4021C13.4321 21.4255 13.4355 21.4489 13.4391 21.4731C13.4551 21.5806 13.4711 21.6882 13.4871 21.7958C13.4953 21.8511 13.4953 21.8511 13.5037 21.9075C13.5342 22.113 13.5645 22.3186 13.5944 22.5242C13.6071 22.6089 13.6199 22.6936 13.6327 22.7783C13.6389 22.8217 13.6451 22.8651 13.6515 22.9098C13.6928 23.2278 13.6928 23.2278 13.8367 23.5052C14.2046 23.7568 14.6977 23.6932 15.1199 23.6915C15.21 23.6917 15.3001 23.6921 15.3902 23.6924C15.6373 23.6933 15.8844 23.6931 16.1315 23.6927C16.3708 23.6926 16.61 23.6931 16.8493 23.6937C17.3385 23.6949 17.8278 23.6952 18.317 23.6952C18.8013 23.6951 19.2856 23.6954 19.7699 23.6962C19.8151 23.6962 19.8151 23.6962 19.8612 23.6963C20.0142 23.6965 20.1672 23.6968 20.3203 23.697C21.4037 23.6987 22.4871 23.6997 23.5705 23.7002C24.6229 23.7007 25.6752 23.7015 26.7276 23.7028C26.7601 23.7028 26.7925 23.7029 26.826 23.7029C27.1518 23.7033 27.4777 23.7037 27.8036 23.7041C28.4674 23.705 29.1313 23.7058 29.7951 23.7065C29.8256 23.7066 29.8561 23.7066 29.8876 23.7066C30.8229 23.7077 31.7582 23.7086 32.6936 23.7093C32.7722 23.7093 32.7721 23.7093 32.8523 23.7094C33.9016 23.7102 34.9508 23.7107 36 23.7113C36 25.6165 36 27.5216 36 29.4845C33.2659 29.4879 33.2659 29.4879 32.4198 29.4888C32.3745 29.4888 32.3745 29.4888 32.3284 29.4889C31.3123 29.49 30.2962 29.4908 29.2801 29.4915C29.247 29.4915 29.2138 29.4916 29.1796 29.4916C28.4587 29.4921 27.7379 29.4925 27.017 29.493C26.6634 29.4932 26.3099 29.4934 25.9564 29.4936C25.9036 29.4936 25.9036 29.4936 25.8497 29.4937C24.7101 29.4944 23.5704 29.4956 22.4307 29.4971C21.2592 29.4987 20.0878 29.4997 18.9163 29.5C18.7507 29.5001 18.5851 29.5001 18.4196 29.5002C18.387 29.5002 18.3544 29.5002 18.3208 29.5002C17.7969 29.5004 17.273 29.5012 16.7491 29.5022C16.222 29.5031 15.6949 29.5035 15.1678 29.5033C14.8548 29.5031 14.5419 29.5035 14.229 29.5045C13.9949 29.5052 13.7608 29.505 13.5268 29.5045C13.4324 29.5044 13.338 29.5046 13.2436 29.5051C11.8538 29.5123 10.7726 28.9879 9.79082 28.0129C9.21578 27.4275 8.77998 26.7506 8.42092 26.0129C8.39983 25.9708 8.39983 25.9708 8.37832 25.9279C8.0899 25.3146 7.95677 24.6259 7.82414 23.9646C7.8079 23.8851 7.79162 23.8056 7.7753 23.7262C7.74009 23.5544 7.70508 23.3826 7.67022 23.2108C7.57219 22.728 7.47256 22.2454 7.37309 21.7629C7.36244 21.7112 7.35179 21.6595 7.34082 21.6062C7.06752 20.2797 6.78517 18.9551 6.50234 17.6306C6.47535 17.5043 6.44837 17.3779 6.4214 17.2515C6.26619 16.5243 6.11081 15.7972 5.95533 15.0701C5.86497 14.6476 5.77468 14.2251 5.68443 13.8025C5.67826 13.7736 5.67209 13.7447 5.66573 13.715C5.64102 13.5993 5.61631 13.4836 5.5916 13.3679C5.49017 12.8929 5.38869 12.418 5.28721 11.9431C5.26417 11.8353 5.24114 11.7275 5.21812 11.6198C4.98981 10.5512 4.76135 9.48274 4.5305 8.41477C4.50336 8.28917 4.47625 8.16357 4.44914 8.03797C4.4405 7.99792 4.43186 7.95787 4.42295 7.91661C4.40595 7.8378 4.38894 7.759 4.37193 7.68019C4.32402 7.45822 4.27591 7.23629 4.22763 7.0144C4.19888 6.88209 4.17031 6.74974 4.14178 6.61738C4.12877 6.55724 4.1157 6.49711 4.10254 6.43701C4.08482 6.35603 4.06738 6.27499 4.04995 6.19394C4.04023 6.14914 4.0305 6.10435 4.02048 6.05819C4 5.93814 4 5.93814 4 5.73196C2.68 5.73196 1.36 5.73196 0 5.73196C0 3.84041 0 1.94887 0 0ZM1.67347 1.69072C1.67347 2.46639 1.67347 3.24206 1.67347 4.04124C2.95306 4.04124 4.23265 4.04124 5.55102 4.04124C5.57122 4.22495 5.57122 4.22495 5.59184 4.41237C5.60587 4.49492 5.6211 4.57728 5.63782 4.65932C5.64703 4.70495 5.65624 4.75057 5.66574 4.79758C5.68086 4.87115 5.68086 4.87115 5.69629 4.94622C5.70703 4.99915 5.71777 5.05209 5.72884 5.10663C5.75847 5.25264 5.78831 5.39861 5.81818 5.54457C5.85033 5.70187 5.88229 5.85921 5.91427 6.01654C5.96964 6.28883 6.02514 6.5611 6.08071 6.83335C6.16189 7.23101 6.24288 7.6287 6.32383 8.02641C6.3616 8.21198 6.39937 8.39754 6.43715 8.5831C6.44469 8.62015 6.45223 8.65721 6.46 8.69538C6.51407 8.96093 6.56817 9.22647 6.62228 9.49201C6.81735 10.4492 7.01201 11.4064 7.2062 12.3638C7.2656 12.6566 7.32501 12.9495 7.38443 13.2423C7.3909 13.2742 7.39738 13.3061 7.40405 13.339C7.84416 15.508 8.28598 17.6767 8.73065 19.8448C8.76675 20.0209 8.80284 20.197 8.83889 20.373C8.98355 21.0793 9.12896 21.7854 9.27548 22.4913C9.30646 22.6408 9.33732 22.7904 9.36815 22.9399C9.41814 23.1821 9.46859 23.4242 9.51939 23.6662C9.53793 23.7549 9.55634 23.8436 9.57458 23.9323C9.82568 25.152 10.2068 26.4814 11.2959 27.2036C11.8752 27.5736 12.5031 27.7598 13.1874 27.7577C13.2424 27.7577 13.2424 27.7577 13.2985 27.7578C13.4214 27.7579 13.5444 27.7577 13.6673 27.7575C13.7563 27.7576 13.8452 27.7576 13.9342 27.7576C14.1788 27.7577 14.4234 27.7576 14.668 27.7574C14.9318 27.7572 15.1955 27.7572 15.4592 27.7573C15.9162 27.7573 16.3732 27.7572 16.8301 27.7569C17.3094 27.7567 17.7887 27.7565 18.2679 27.7565C18.3126 27.7565 18.3126 27.7565 18.3582 27.7565C18.5096 27.7565 18.6609 27.7565 18.8123 27.7564C19.8842 27.7564 20.9561 27.7561 22.028 27.7557C23.0694 27.7553 24.1107 27.755 25.1521 27.7548C25.1842 27.7548 25.2163 27.7548 25.2493 27.7548C25.5717 27.7548 25.8941 27.7547 26.2164 27.7547C26.8731 27.7546 27.5298 27.7544 28.1865 27.7543C28.2167 27.7543 28.2469 27.7543 28.278 27.7543C30.2942 27.7539 32.3103 27.7533 34.3265 27.7526C34.3265 26.9905 34.3265 26.2285 34.3265 25.4433C34.06 25.4431 33.7935 25.443 33.5189 25.4428C31.7587 25.4418 29.9985 25.4406 28.2384 25.4385C28.1933 25.4384 28.1933 25.4384 28.1473 25.4384C27.4945 25.4376 26.8417 25.4368 26.189 25.436C25.8688 25.4355 25.5487 25.4351 25.2286 25.4347C25.1967 25.4347 25.1648 25.4347 25.132 25.4346C24.0995 25.4333 23.067 25.4326 22.0345 25.4321C20.9734 25.4316 19.9123 25.4305 18.8513 25.4288C18.7014 25.4286 18.5515 25.4283 18.4016 25.4281C18.3574 25.428 18.3574 25.428 18.3122 25.428C17.8375 25.4272 17.3627 25.4271 16.8879 25.4271C16.4105 25.4272 15.9332 25.4266 15.4558 25.4255C15.1972 25.4249 14.9386 25.4245 14.68 25.4249C14.4432 25.4253 14.2064 25.4248 13.9697 25.4238C13.884 25.4236 13.7984 25.4236 13.7127 25.424C12.7834 25.4274 12.7834 25.4274 12.4866 25.1609C11.9361 24.5911 11.9165 23.5654 11.8004 22.8193C11.786 22.7279 11.7716 22.6365 11.7572 22.5451C11.7197 22.3072 11.6824 22.0692 11.6452 21.8313C11.6071 21.5874 11.5687 21.3435 11.5303 21.0997C11.4553 20.6232 11.3806 20.1467 11.3061 19.6701C11.3333 19.6702 11.3604 19.6703 11.3884 19.6704C15.2289 19.6827 19.0693 19.6947 29.6829 19.7164C29.9482 19.7165 30.2136 19.7166 30.4789 19.7168C30.8249 19.7171 31.1709 19.7171 31.5169 19.7169C31.6379 19.7168 31.7589 19.7168 31.8799 19.717C32.8911 19.7877 32.8911 19.7877 33.8367 19.5464C34.0036 19.3465 34.074 19.1123 34.1551 18.8681C34.1695 18.8257 34.1839 18.7833 34.1988 18.7396C34.2459 18.6005 34.2926 18.4614 34.3393 18.3222C34.3722 18.2247 34.4052 18.1273 34.4383 18.0299C34.4887 17.8814 34.539 17.7328 34.5892 17.5842C34.7271 17.176 34.8676 16.7687 35.0089 16.3617C35.2482 15.6723 35.4825 14.9812 35.7148 14.2892C35.9195 13.6796 36.1277 13.0714 36.3386 12.4639C36.4908 12.0253 36.641 11.5861 36.7881 11.1458C36.8106 11.0784 36.8106 11.0784 36.8336 11.0097C36.8951 10.8256 36.9565 10.6415 37.018 10.4574C37.2801 9.67334 37.5538 8.89398 37.8362 8.11718C37.9737 7.73772 38.1075 7.35726 38.2277 6.97181C38.2438 6.9224 38.2438 6.9224 38.2602 6.872C38.3264 6.65268 38.3333 6.49324 38.2857 6.26804C38.1123 5.9834 37.8515 5.88331 37.5383 5.8067C36.84 5.6897 36.1081 5.72599 35.4031 5.72692C35.258 5.72706 35.1129 5.72696 34.9677 5.72689C34.7142 5.72681 34.4606 5.72687 34.207 5.72704C33.83 5.72729 33.453 5.7273 33.0759 5.72727C32.4415 5.72721 31.8071 5.72735 31.1726 5.7276C30.5449 5.72784 29.9172 5.728 29.2895 5.72805C29.2504 5.72805 29.2113 5.72805 29.171 5.72806C28.9724 5.72807 28.7738 5.72808 28.5752 5.72809C27.1704 5.72818 25.7655 5.72846 24.3607 5.72885C22.9963 5.72923 21.6319 5.72952 20.2676 5.72969C20.2044 5.7297 20.2044 5.7297 20.14 5.72971C19.7173 5.72976 19.2946 5.72982 18.8719 5.72987C18.0108 5.72997 17.1497 5.73009 16.2887 5.73021C16.2293 5.73022 16.2293 5.73022 16.1687 5.73023C13.5274 5.73061 10.8862 5.73126 8.2449 5.73196C8.24231 5.70726 8.23972 5.68256 8.23706 5.65711C8.23355 5.62429 8.23004 5.59147 8.22643 5.55766C8.223 5.5253 8.21957 5.49295 8.21603 5.45962C8.19694 5.30181 8.1669 5.14656 8.1364 4.99067C8.12969 4.95575 8.12298 4.92084 8.11607 4.88487C8.09411 4.77078 8.07193 4.65673 8.04974 4.54269C8.03433 4.46298 8.01893 4.38327 8.00354 4.30356C7.97139 4.13721 7.93913 3.97088 7.90679 3.80456C7.86529 3.59109 7.82403 3.37758 7.78285 3.16405C7.75115 2.99978 7.71933 2.83554 7.68747 2.6713C7.6722 2.59254 7.65697 2.51377 7.64178 2.43499C7.6206 2.3253 7.59926 2.21565 7.57789 2.106C7.57161 2.07333 7.56533 2.04067 7.55886 2.00701C7.52846 1.84424 7.52846 1.84424 7.46939 1.69072C5.55673 1.69072 3.64408 1.69072 1.67347 1.69072Z" fill="#FE0316"/>
<path d="M16.7213 32.4508C16.7527 32.4789 16.7842 32.5069 16.8165 32.5357C16.8509 32.565 16.8852 32.5943 16.9206 32.6245C17.6696 33.2779 18.1745 34.2189 18.2859 35.2161C18.3674 36.4599 18.1189 37.5906 17.3063 38.5563C16.6297 39.3356 15.6872 39.8942 14.6533 39.9996C13.7437 40.0453 12.9779 39.9621 12.1635 39.546C12.1203 39.524 12.0771 39.5019 12.0326 39.4792C11.1133 38.9716 10.3957 38.0769 10.0954 37.0621C9.77207 35.8567 9.89998 34.6694 10.5061 33.5799C10.6413 33.3476 10.7968 33.1441 10.9798 32.9481C11.0335 32.8897 11.0335 32.8897 11.0882 32.8302C12.521 31.3073 15.1083 31.0644 16.7213 32.4508ZM12.1923 34.1702C11.7332 34.7802 11.5531 35.4594 11.6505 36.2203C11.7826 36.9013 12.1463 37.4445 12.6941 37.8527C13.3144 38.2571 13.9846 38.3934 14.7108 38.2379C15.3944 38.0477 15.9213 37.627 16.2871 37.0199C16.5968 36.4587 16.6529 35.8064 16.5437 35.1797C16.5062 35.0494 16.4623 34.928 16.4084 34.8038C16.392 34.7655 16.3756 34.7273 16.3588 34.688C16.0665 34.0846 15.5505 33.6416 14.9359 33.4017C13.9492 33.061 12.8735 33.3789 12.1923 34.1702Z" fill="#FE0316"/>
<path d="M32.5932 32.6062C33.3327 33.2547 33.8275 34.1931 33.9596 35.1745C34.0489 36.4997 33.785 37.5679 32.9392 38.5972C32.9003 38.6486 32.9003 38.6486 32.8607 38.7011C32.7071 38.8864 32.5151 39.0265 32.3269 39.1745C32.2954 39.1997 32.2638 39.225 32.2313 39.251C31.3301 39.9323 30.2121 40.102 29.1124 39.9875C28.6596 39.9196 28.2439 39.7529 27.8371 39.5456C27.7944 39.524 27.7517 39.5025 27.7077 39.4802C26.6923 38.9239 26.0483 37.9594 25.7147 36.8652C25.6776 36.7278 25.6502 36.5941 25.6331 36.4528C25.6286 36.4207 25.6242 36.3886 25.6197 36.3555C25.4853 35.2341 25.7651 34.1035 26.4443 33.2028C27.1567 32.2933 28.1432 31.699 29.2915 31.5616C30.5147 31.4415 31.6605 31.8033 32.5932 32.6062ZM27.9004 34.135C27.4709 34.6894 27.2357 35.3299 27.3065 36.0405C27.4252 36.7912 27.757 37.3984 28.3677 37.8523C28.9399 38.2247 29.5701 38.3825 30.2453 38.2673C30.9147 38.1154 31.4916 37.759 31.8754 37.1771C32.2862 36.4644 32.3701 35.8005 32.1637 35.0095C31.9824 34.3902 31.518 33.8653 30.9655 33.5532C29.9395 33.0154 28.6651 33.2541 27.9004 34.135Z" fill="#FE0316"/>
<path d="M27.8369 8.08203C27.8821 8.12082 27.9273 8.15967 27.9724 8.19855C27.9975 8.22017 28.0227 8.2418 28.0486 8.26408C28.1558 8.35874 28.2554 8.45902 28.3559 8.56109C28.3866 8.59214 28.3866 8.59214 28.4178 8.62382C28.4819 8.68883 28.5459 8.75399 28.6099 8.81914C28.6538 8.86372 28.6977 8.90829 28.7417 8.95284C28.8484 9.06109 28.9549 9.16946 29.0614 9.27791C29.0052 9.40538 28.9407 9.49279 28.8434 9.59143C28.815 9.62037 28.7866 9.64931 28.7574 9.67912C28.7105 9.72634 28.7105 9.72634 28.6627 9.77451C28.613 9.82503 28.613 9.82503 28.5623 9.87657C28.4704 9.96999 28.3782 10.0632 28.286 10.1564C28.1866 10.2569 28.0874 10.3576 27.9882 10.4584C27.7713 10.6785 27.554 10.8983 27.3367 11.118C27.2011 11.2551 27.0656 11.3923 26.9301 11.5296C26.555 11.9093 26.1799 12.289 25.8044 12.6684C25.7804 12.6927 25.7564 12.717 25.7317 12.742C25.683 12.7912 25.6343 12.8404 25.5856 12.8896C25.5614 12.914 25.5372 12.9385 25.5123 12.9636C25.4881 12.9881 25.4639 13.0125 25.439 13.0377C25.0464 13.4346 24.6542 13.8319 24.2623 14.2294C23.8601 14.6373 23.4575 15.0448 23.0546 15.4519C22.8283 15.6806 22.6021 15.9094 22.3764 16.1387C22.1842 16.3338 21.9918 16.5285 21.7989 16.7228C21.7004 16.822 21.6021 16.9214 21.5042 17.0212C21.3982 17.1292 21.2916 17.2364 21.1848 17.3436C21.1537 17.3755 21.1226 17.4074 21.0906 17.4404C21.0621 17.4688 21.0335 17.4972 21.0041 17.5264C20.9795 17.5513 20.9549 17.5761 20.9296 17.6017C20.8573 17.649 20.8573 17.649 20.7723 17.641C20.6563 17.5918 20.5865 17.5142 20.4978 17.4244C20.4787 17.4051 20.4595 17.3859 20.4398 17.3661C20.3757 17.3015 20.3121 17.2366 20.2484 17.1716C20.2026 17.1252 20.1567 17.0789 20.1108 17.0326C19.9862 16.9068 19.8621 16.7806 19.7379 16.6543C19.6082 16.5225 19.4781 16.391 19.348 16.2594C19.1017 16.0102 18.8558 15.7607 18.6099 15.5111C18.33 15.2269 18.0498 14.9431 17.7695 14.6593C17.193 14.0755 16.6168 13.4913 16.041 12.9068C16.0794 12.8611 16.1179 12.8155 16.1563 12.7699C16.1777 12.7445 16.1992 12.7191 16.2212 12.693C16.3149 12.5846 16.4142 12.4839 16.5152 12.3825C16.5357 12.3618 16.5562 12.3412 16.5773 12.3199C16.6416 12.2551 16.7061 12.1905 16.7706 12.1258C16.8147 12.0815 16.8588 12.0371 16.9029 11.9927C17.0101 11.8849 17.1173 11.7773 17.2247 11.6697C17.3518 11.7267 17.4382 11.7927 17.5362 11.892C17.5649 11.9209 17.5937 11.9498 17.6233 11.9796C17.6699 12.0272 17.6699 12.0272 17.7175 12.0757C17.7505 12.1091 17.7836 12.1425 17.8177 12.1769C17.927 12.2874 18.036 12.3981 18.145 12.5089C18.2207 12.5855 18.2964 12.6622 18.3721 12.7388C18.5511 12.9198 18.7299 13.1011 18.9086 13.2825C19.112 13.489 19.3157 13.6952 19.5195 13.9015C19.9385 14.3257 20.3572 14.7501 20.7757 15.1748C20.9774 15.0039 21.1673 14.8262 21.353 14.6378C21.3809 14.6096 21.4088 14.5814 21.4376 14.5524C21.5304 14.4587 21.6231 14.3648 21.7158 14.2709C21.7826 14.2034 21.8494 14.136 21.9162 14.0685C22.0971 13.8858 22.2778 13.7029 22.4586 13.52C22.6476 13.3288 22.8368 13.1376 23.026 12.9464C23.3433 12.6257 23.6606 12.3049 23.9778 11.9841C24.3044 11.6537 24.6311 11.3234 24.9578 10.9931C24.9881 10.9625 24.9881 10.9625 25.0189 10.9313C25.1201 10.8291 25.2212 10.7268 25.3224 10.6246C26.1607 9.77718 26.9989 8.92965 27.8369 8.08203Z" fill="#FE0316"/>
<path d="M27.2655 32.3711C27.2925 32.3847 27.3194 32.3983 27.3472 32.4123C27.0778 32.6845 26.8084 32.9567 26.5309 33.2371C26.5039 33.2235 26.477 33.2099 26.4492 33.1958C26.7076 32.903 26.9674 32.6239 27.2655 32.3711Z" fill="#FE0316"/>
</g>
<defs>
<clipPath id="clip0_411_10133">
<rect width="40" height="40" fill="white"/>
</clipPath>
</defs>
</svg>
