<svg width="40" height="40" viewBox="0 0 40 40" fill="none" xmlns="http://www.w3.org/2000/svg">
<g clip-path="url(#clip0_411_10143)">
<path d="M38.6282 0.998444C39.3496 1.5941 39.8717 2.4235 40 3.35928C40.1854 5.58708 39.4786 7.34815 38.0963 9.05661C37.4227 9.83727 36.556 10.5597 35.625 11.0155C35.5734 11.0155 35.5219 11.0155 35.4687 11.0155C35.478 11.0766 35.4873 11.1376 35.4969 11.2005C35.6076 11.9489 35.6959 12.6984 35.7746 13.4506C35.7888 13.5856 35.8035 13.7206 35.8185 13.8555C36.0486 15.9291 36.0486 15.9291 35.4393 16.6982C35.3156 16.8329 35.1879 16.9618 35.0574 17.0899C35.0091 17.1385 34.9607 17.1871 34.911 17.2372C34.7526 17.3961 34.5931 17.5539 34.4336 17.7117C34.3226 17.8225 34.2117 17.9333 34.1009 18.0442C33.8691 18.2757 33.6369 18.5066 33.4042 18.7372C33.106 19.0327 32.8089 19.3293 32.5121 19.6262C32.2835 19.8548 32.0544 20.083 31.8253 20.311C31.7155 20.4202 31.6059 20.5296 31.4963 20.639C31.3434 20.7916 31.19 20.9437 31.0364 21.0956C30.9912 21.1408 30.9461 21.186 30.8996 21.2326C30.4968 21.629 30.4968 21.629 30.2344 21.7187C29.9963 21.7041 29.8277 21.679 29.624 21.5526C29.4681 21.3064 29.4435 21.1522 29.4531 20.8593C29.8182 20.2983 30.4012 19.8283 30.8777 19.3602C31.0756 19.1657 31.2726 18.9705 31.4697 18.7753C31.8355 18.4131 32.2015 18.0512 32.5688 17.6907C32.8256 17.4385 33.0814 17.1854 33.3366 16.9317C33.4336 16.8356 33.5309 16.7399 33.6286 16.6446C33.7651 16.5113 33.9003 16.3769 34.0353 16.2421C34.0956 16.1841 34.0956 16.1841 34.1572 16.1249C34.4683 15.8101 34.599 15.4994 34.6163 15.0571C34.6074 14.9805 34.6074 14.9805 34.5984 14.9024C34.5921 14.8435 34.5859 14.7845 34.5794 14.7238C34.5718 14.6619 34.5641 14.6001 34.5563 14.5363C34.5455 14.4383 34.5455 14.4383 34.5346 14.3382C34.5117 14.1306 34.4874 13.9232 34.4629 13.7157C34.4392 13.5085 34.4159 13.3013 34.3929 13.094C34.3785 12.9656 34.3638 12.8371 34.3485 12.7087C34.3046 12.3239 34.2902 11.9498 34.2969 11.5624C34.2211 11.5793 34.1454 11.5962 34.0674 11.6137C33.4962 11.7343 32.9721 11.8088 32.3877 11.7821C31.8966 11.7701 31.6232 11.8266 31.2494 12.1477C30.7559 12.5212 30.1177 12.4729 29.5312 12.4218C28.9672 12.2928 28.4998 12.003 28.125 11.5624C27.7089 10.8906 27.559 10.2715 27.6895 9.48752C27.8515 8.85027 28.1996 8.33905 28.75 7.97354C29.3639 7.63313 30.0092 7.55175 30.693 7.70712C31.3911 7.93269 31.908 8.33775 32.2656 8.98428C32.4103 9.34437 32.4389 9.64235 32.4316 10.0292C32.4302 10.1265 32.4288 10.2238 32.4274 10.324C32.4246 10.4343 32.4246 10.4343 32.4219 10.5468C32.6367 10.5095 32.8516 10.472 33.0664 10.4345C33.1271 10.424 33.1879 10.4134 33.2504 10.4026C33.3093 10.3923 33.3682 10.3819 33.4289 10.3713C33.51 10.3572 33.51 10.3572 33.5926 10.3428C33.751 10.3122 33.9064 10.2748 34.0625 10.2343C33.9883 9.2481 33.9033 8.26314 33.7939 7.28018C33.781 7.15451 33.781 7.15451 33.7679 7.0263C33.7544 6.90951 33.7544 6.90951 33.7405 6.79038C33.7329 6.72171 33.7253 6.65305 33.7175 6.5823C33.6628 6.37132 33.6059 6.30779 33.4375 6.17178C32.5987 5.91731 31.6232 5.91737 30.7529 5.82938C30.5839 5.8121 30.4148 5.79481 30.2458 5.7775C29.8933 5.74146 29.5408 5.70563 29.1882 5.66996C28.737 5.6243 28.2859 5.57811 27.8348 5.53178C27.4865 5.49605 27.1382 5.46059 26.7899 5.42522C26.6235 5.40829 26.4572 5.39128 26.2908 5.37419C26.0585 5.35037 25.8261 5.3269 25.5938 5.30352C25.5256 5.29646 25.4575 5.2894 25.3872 5.28213C25.2621 5.26968 25.1368 5.25838 25.0114 5.24846C24.8613 5.23576 24.7118 5.21621 24.5625 5.19578C23.8549 5.29836 23.2423 6.19849 22.7485 6.6915C22.6558 6.78376 22.5631 6.876 22.4703 6.96824C22.2168 7.22052 21.9635 7.47305 21.7103 7.72562C21.4928 7.94249 21.2752 8.15922 21.0575 8.37595C20.279 9.15123 19.501 9.92708 18.7231 10.703C18.6311 10.7949 18.6311 10.7949 18.5371 10.8886C17.318 12.1046 16.0992 13.3208 14.8807 14.5375C14.6133 14.8046 14.3459 15.0716 14.0784 15.3387C14.012 15.405 13.9455 15.4714 13.877 15.5398C12.7983 16.6168 11.7185 17.6928 10.6383 18.7683C9.52916 19.8727 8.42104 20.9781 7.3139 22.0845C6.69229 22.7056 6.07022 23.3263 5.44698 23.9458C4.91674 24.4729 4.38742 25.0009 3.85931 25.5301C3.58975 25.8002 3.31975 26.0698 3.04856 26.3382C2.80049 26.5838 2.5537 26.8306 2.30789 27.0784C2.21859 27.168 2.12882 27.2571 2.03856 27.3457C1.91618 27.466 1.79559 27.5878 1.67532 27.7102C1.60778 27.7776 1.54025 27.8449 1.47067 27.9143C1.28806 28.1841 1.29348 28.3523 1.32811 28.6718C1.4223 28.845 1.4223 28.845 1.56737 28.9794C1.64139 29.0575 1.64139 29.0575 1.71691 29.1372C1.79516 29.2162 1.79516 29.2162 1.87499 29.2968C2.40644 29.8416 2.40644 29.8416 2.47069 30.1757C2.41464 30.4223 2.37912 30.5361 2.18749 30.703C1.90314 30.782 1.72733 30.8233 1.4572 30.692C0.9104 30.3087 0.144928 29.6664 -1.03898e-05 28.9843C-0.102665 28.1546 -0.0141914 27.7071 0.46874 27.0312C0.758035 26.6988 1.06819 26.3897 1.38102 26.0797C1.4745 25.9859 1.56791 25.8921 1.66126 25.7982C1.91661 25.5417 2.17292 25.2861 2.42941 25.0308C2.70637 24.7547 2.98243 24.4777 3.25861 24.2008C3.79921 23.6591 4.34065 23.1183 4.88239 22.5777C5.51343 21.948 6.14368 21.3175 6.77392 20.687C7.89848 19.5619 9.02381 18.4377 10.1496 17.3139C11.2416 16.2237 12.3331 15.1328 13.4238 14.0413C14.6121 12.8521 15.8007 11.6633 16.99 10.4752C17.1168 10.3485 17.2436 10.2218 17.3704 10.095C17.4328 10.0327 17.4952 9.97037 17.5595 9.90614C17.999 9.46702 18.4383 9.02765 18.8774 8.58818C19.4125 8.05264 19.9481 7.51753 20.4842 6.98297C20.7577 6.71027 21.031 6.43739 21.3038 6.164C21.5536 5.91364 21.8039 5.66384 22.0547 5.41446C22.1452 5.32426 22.2355 5.23385 22.3256 5.14323C23.523 3.93958 23.523 3.93958 24.2438 3.89492C24.8277 3.89476 25.3998 3.94473 25.9799 4.0087C26.0775 4.0191 26.1752 4.02951 26.2757 4.04023C26.5323 4.06765 26.7887 4.09545 27.0452 4.12345C27.3081 4.15206 27.571 4.18015 27.834 4.20828C28.3477 4.26335 28.8614 4.31893 29.375 4.37491C29.4099 4.28421 29.4099 4.28421 29.4455 4.19167C30.0993 2.61029 31.9006 1.27591 33.4375 0.624909C35.1782 -0.0345359 37.0644 -0.142529 38.6282 0.998444ZM32.1094 2.96866C32.0428 3.02506 31.9762 3.08145 31.9076 3.13956C31.4801 3.5088 31.0869 3.8962 30.7812 4.37491C30.7812 4.42647 30.7812 4.47803 30.7812 4.53116C31.279 4.61528 31.7748 4.68669 32.2772 4.73624C32.3627 4.74512 32.4482 4.754 32.5363 4.76315C32.708 4.78075 32.8799 4.79708 33.0519 4.81202C33.6983 4.88005 34.1625 5.05509 34.5996 5.54678C34.9229 6.00315 34.9664 6.43489 35.0226 6.97897C35.031 7.05645 35.0395 7.13393 35.0482 7.21376C35.075 7.46046 35.101 7.70723 35.1269 7.95401C35.145 8.12161 35.1631 8.2892 35.1813 8.45679C35.2256 8.86693 35.2693 9.27714 35.3125 9.68741C35.449 9.60212 35.5852 9.5165 35.7214 9.43076C35.7973 9.38311 35.8732 9.33547 35.9515 9.28639C37.2475 8.42875 38.3658 6.84476 38.7186 5.32065C38.8542 4.27382 38.8323 3.29699 38.2275 2.39737C37.7812 1.85147 37.1765 1.52104 36.4844 1.40616C34.8502 1.25592 33.3146 1.88822 32.1094 2.96866ZM29.2187 9.21866C28.9781 9.52405 28.8797 9.81648 28.9014 10.205C28.9637 10.5735 29.1065 10.7595 29.375 11.0155C29.6298 11.1964 29.849 11.1857 30.1562 11.1718C30.0982 11.1138 30.0402 11.0558 29.9805 10.996C29.9096 10.9251 29.8387 10.8542 29.7656 10.7812C29.706 10.7328 29.6464 10.6845 29.5849 10.6347C29.4531 10.4687 29.4531 10.4687 29.4189 10.1903C29.4531 9.92178 29.4531 9.92178 29.5312 9.77042C29.7909 9.63249 30.0322 9.62357 30.3125 9.68741C30.4904 9.7938 30.6426 9.91108 30.7999 10.046C30.9418 10.1726 30.9418 10.1726 31.1719 10.2343C31.2076 9.7874 31.1436 9.56608 30.8594 9.21866C30.6037 8.994 30.4005 8.91462 30.0586 8.88175C29.716 8.91029 29.4755 8.99356 29.2187 9.21866Z" fill="#FE0316"/>
<path d="M28.4375 22.344C28.6182 22.427 28.6182 22.427 28.75 22.5784C28.8261 22.8522 28.8694 23.0336 28.7505 23.2977C28.5201 23.6184 28.245 23.8869 27.9658 24.1653C27.9011 24.2304 27.8363 24.2955 27.7696 24.3626C27.5902 24.543 27.4105 24.723 27.2306 24.9029C27.0365 25.0971 26.8429 25.2917 26.6492 25.4863C26.2257 25.9116 25.8017 26.3363 25.3775 26.7608C25.1125 27.0261 24.8476 27.2915 24.5828 27.5569C23.8491 28.2921 23.1153 29.0271 22.381 29.7617C22.334 29.8087 22.2871 29.8557 22.2387 29.9041C22.1434 29.9993 22.0482 30.0946 21.953 30.1898C21.9057 30.2371 21.8585 30.2844 21.8098 30.3331C21.7624 30.3804 21.7151 30.4278 21.6664 30.4766C20.8998 31.2434 20.1341 32.0112 19.3688 32.7794C18.5826 33.5686 17.7957 34.3571 17.008 35.1448C16.5659 35.5869 16.1242 36.0292 15.6833 36.4724C15.3078 36.8499 14.9316 37.2266 14.5545 37.6025C14.3623 37.7941 14.1704 37.9861 13.9794 38.1789C13.7717 38.3882 13.5629 38.5962 13.3537 38.804C13.2941 38.8646 13.2345 38.9252 13.1731 38.9876C12.7258 39.4281 12.2455 39.7683 11.6211 39.8959C11.5502 39.8949 11.4793 39.8938 11.4063 39.8928C11.3354 39.8938 11.2645 39.8948 11.1914 39.8959C10.453 39.745 9.94418 39.2975 9.43054 38.7732C9.36273 38.7056 9.29492 38.638 9.22506 38.5683C9.04117 38.3845 8.85819 38.1999 8.67558 38.0149C8.48373 37.8208 8.29078 37.6279 8.09796 37.4348C7.77496 37.1111 7.45269 36.7867 7.13092 36.4618C6.67683 36.0032 6.22138 35.546 5.76568 35.0891C5.4498 34.7722 5.13423 34.4551 4.81873 34.1378C4.74229 34.061 4.66583 33.9841 4.58937 33.9073C4.33856 33.6552 4.08813 33.4027 3.83789 33.15C3.77438 33.0862 3.71087 33.0224 3.64543 32.9566C3.55921 32.8694 3.55921 32.8694 3.47125 32.7804C3.39596 32.7044 3.39596 32.7044 3.31916 32.627C3.10655 32.3947 3.09335 32.1859 3.09846 31.8737C3.12501 31.719 3.12501 31.719 3.28615 31.5188C3.51925 31.4047 3.6514 31.3791 3.90588 31.4238C4.25692 31.5601 4.50288 31.8656 4.76039 32.1305C4.82804 32.1982 4.89569 32.2659 4.96538 32.3357C5.15007 32.521 5.33366 32.7072 5.51686 32.894C5.70891 33.0893 5.90234 33.2832 6.09563 33.4773C6.46131 33.8448 6.8258 34.2135 7.18986 34.5826C7.7248 35.1249 8.26149 35.6654 8.79818 36.206C8.8773 36.2857 8.95642 36.3654 9.03554 36.4451C9.07415 36.484 9.11277 36.5229 9.15256 36.5629C9.38236 36.7945 9.61183 37.0263 9.841 37.2585C9.94906 37.368 10.0572 37.4773 10.1654 37.5867C10.2974 37.7202 10.4293 37.8538 10.561 37.9876C10.6189 38.0461 10.6769 38.1046 10.7366 38.1649C10.787 38.216 10.8374 38.2671 10.8894 38.3197C11.0529 38.4726 11.1559 38.5128 11.377 38.5549C11.99 38.4641 12.5062 37.7393 12.93 37.3135C13.0258 37.2177 13.0258 37.2177 13.1236 37.1199C13.3364 36.9071 13.5488 36.694 13.7613 36.481C13.9142 36.3278 14.0673 36.1747 14.2203 36.0216C14.549 35.6926 14.8776 35.3635 15.2062 35.0343C15.6813 34.5582 16.1566 34.0824 16.632 33.6067C17.4037 32.8345 18.1752 32.0621 18.9465 31.2897C18.9926 31.2435 19.0387 31.1973 19.0862 31.1498C19.4136 30.8219 19.741 30.4941 20.0684 30.1662C20.4431 29.7909 20.8179 29.4156 21.1927 29.0403C21.2389 28.9941 21.2851 28.9478 21.3327 28.9001C22.1018 28.1299 22.8712 27.3598 23.6406 26.5898C24.1151 26.115 24.5895 25.64 25.0637 25.1648C25.3881 24.8397 25.7126 24.5148 26.0373 24.19C26.2247 24.0024 26.4121 23.8148 26.5994 23.627C26.802 23.4238 27.0048 23.2209 27.2077 23.018C27.2971 22.9282 27.2971 22.9282 27.3883 22.8366C27.4424 22.7826 27.4965 22.7286 27.5522 22.673C27.5991 22.6261 27.6459 22.5792 27.6941 22.5309C27.9304 22.3138 28.1246 22.319 28.4375 22.344Z" fill="#FE0316"/>
<path d="M9.795 27.4745C10.2557 27.8804 10.5174 28.2388 10.7032 28.8271C10.7618 28.8282 10.8204 28.8293 10.8808 28.8304C11.632 28.8654 12.2046 29.0358 12.7296 29.5937C13.2269 30.2259 13.2819 30.8442 13.2032 31.6396C13.0604 32.2612 12.6203 32.6802 12.1876 33.1239C12.0976 33.2205 12.0077 33.3172 11.9178 33.4139C11.8223 33.5143 11.7267 33.6146 11.6309 33.7148C11.5861 33.7632 11.5413 33.8117 11.4952 33.8616C11.2711 34.0911 11.1267 34.207 10.8161 34.3077C10.3146 34.2855 9.9936 33.9182 9.6533 33.5774C9.61373 33.538 9.57417 33.4986 9.5334 33.4579C9.40405 33.3289 9.27527 33.1993 9.1465 33.0696C9.0563 32.9793 8.96608 32.8891 8.87582 32.7988C8.68745 32.6103 8.49935 32.4216 8.31144 32.2326C8.07033 31.9902 7.82869 31.7483 7.58688 31.5065C7.40088 31.3205 7.21508 31.1343 7.02935 30.948C6.94028 30.8586 6.85116 30.7694 6.76199 30.6801C6.63781 30.5558 6.5139 30.4312 6.39006 30.3065C6.31947 30.2356 6.24889 30.1648 6.17617 30.0917C5.95226 29.8533 5.88122 29.6592 5.88596 29.3262C5.99352 28.9372 6.32317 28.675 6.60848 28.4043C6.72315 28.2954 6.83513 28.1841 6.94694 28.0722C7.77736 27.2626 8.68604 26.9201 9.795 27.4745ZM8.28132 28.5927C8.12183 28.736 7.97433 28.8774 7.82722 29.0321C7.788 29.0724 7.74877 29.1127 7.70836 29.1542C7.61234 29.253 7.51707 29.3525 7.42195 29.4521C7.49289 29.5405 7.56467 29.6283 7.63679 29.7157C7.67667 29.7647 7.71655 29.8136 7.75764 29.8641C7.89765 30.006 8.02539 30.0693 8.2032 30.1552C8.30086 30.3212 8.30086 30.3212 8.35945 30.4677C8.62048 30.3541 8.79425 30.2102 8.99422 30.0087C9.04759 29.9557 9.10097 29.9028 9.15596 29.8482C9.38085 29.5902 9.45449 29.4463 9.44832 29.1005C9.36067 28.7733 9.27052 28.6875 8.98445 28.5146C8.7037 28.3917 8.54989 28.4594 8.28132 28.5927ZM9.84382 30.8583C9.74958 30.9512 9.65521 31.0441 9.56062 31.1366C9.49939 31.1995 9.43816 31.2623 9.37507 31.3271C9.40086 31.4044 9.42664 31.4818 9.4532 31.5614C9.50476 31.5614 9.55632 31.5614 9.60945 31.5614C9.60945 31.613 9.60945 31.6646 9.60945 31.7177C9.66101 31.7177 9.71257 31.7177 9.7657 31.7177C9.79148 31.795 9.81726 31.8724 9.84382 31.9521C9.89539 31.9521 9.94695 31.9521 10.0001 31.9521C10.0162 31.994 10.0323 32.0359 10.0489 32.079C10.2016 32.3428 10.4049 32.5228 10.6251 32.7333C10.92 32.6108 11.1094 32.4261 11.3331 32.2011C11.4001 32.1345 11.467 32.068 11.536 31.9994C11.8426 31.658 11.9991 31.4082 11.9813 30.9361C11.9347 30.6774 11.8062 30.5101 11.6407 30.3114C11.3541 30.1204 11.1798 30.0994 10.8408 30.1048C10.4105 30.2053 10.1385 30.5469 9.84382 30.8583Z" fill="#FE0316"/>
<path d="M23.9845 10.9383C24.166 11.0839 24.3202 11.2237 24.4811 11.3893C24.5283 11.4363 24.5754 11.4834 24.6241 11.5318C24.7793 11.6869 24.9332 11.8434 25.0871 12C25.1947 12.1082 25.3025 12.2163 25.4103 12.3244C25.6358 12.5507 25.8606 12.7776 26.085 13.0051C26.373 13.2971 26.662 13.5881 26.9514 13.8786C27.2271 14.1554 27.5023 14.4327 27.7775 14.71C27.8566 14.7896 27.8566 14.7896 27.9372 14.8709C28.0858 15.0207 28.234 15.1707 28.3821 15.3209C28.4485 15.3878 28.4485 15.3878 28.5163 15.4561C28.8976 15.8437 28.8976 15.8437 28.9307 16.202C28.9063 16.4852 28.9063 16.4852 28.7891 16.6707C28.5145 16.8492 28.2943 16.8541 27.9688 16.8758C27.9461 16.9371 27.9233 16.9985 27.8999 17.0617C27.5579 17.9382 27.1814 18.4124 26.3282 18.8289C25.5338 19.1571 24.779 19.1552 23.9845 18.8289C23.2659 18.4928 22.813 18.0166 22.4659 17.3055C22.225 16.638 22.2258 15.779 22.4708 15.1131C22.8426 14.3475 23.3628 13.8114 24.1615 13.503C24.231 13.4759 24.3005 13.4489 24.3721 13.421C24.4247 13.4009 24.4772 13.3809 24.5313 13.3602C24.4868 13.3181 24.4422 13.276 24.3963 13.2326C24.1943 13.0404 23.9942 12.8463 23.794 12.6522C23.7239 12.586 23.6537 12.5197 23.5815 12.4515C23.0093 11.8923 23.0093 11.8923 22.9527 11.5679C22.9733 11.2623 23.0609 11.1465 23.2813 10.9383C23.568 10.8428 23.6942 10.8548 23.9845 10.9383ZM23.9063 15.1571C23.5718 15.6184 23.5237 16.084 23.5938 16.6414C23.7492 17.083 24.0295 17.3493 24.3897 17.6375C24.8201 17.8288 25.2772 17.8756 25.7276 17.7254C26.1283 17.5485 26.4008 17.2357 26.6407 16.8758C26.7935 16.4175 26.7974 15.8918 26.6016 15.4451C26.3879 15.0741 26.0346 14.7695 25.6242 14.638C24.9593 14.5191 24.3913 14.6721 23.9063 15.1571Z" fill="#FE0316"/>
<path d="M16.7557 20.8848C17.1816 20.9989 17.4589 21.3573 17.7544 21.6672C17.8284 21.7423 17.9025 21.8172 17.9768 21.892C18.171 22.0885 18.363 22.287 18.5546 22.486C18.7504 22.6885 18.9485 22.8887 19.1463 23.0893C19.4342 23.3822 19.7215 23.6757 20.0069 23.971C20.0643 24.0304 20.1217 24.0897 20.1808 24.1508C20.3657 24.3555 20.3895 24.4357 20.4155 24.7171C20.3911 25.0003 20.3911 25.0003 20.269 25.1907C20.0119 25.3555 19.8314 25.3405 19.5317 25.3128C19.4802 25.287 19.4286 25.2612 19.3755 25.2347C19.3527 25.2847 19.33 25.3348 19.3065 25.3863C18.932 26.1765 18.5002 26.7082 17.675 27.0404C17.0127 27.222 16.1874 27.2054 15.566 26.9046C14.8917 26.4904 14.4848 25.983 14.2192 25.2347C14.0426 24.4641 14.165 23.7297 14.5726 23.0551C14.9064 22.58 15.306 22.2254 15.8599 22.0315C15.9372 22.0315 16.0145 22.0315 16.0942 22.0315C16.0684 21.98 16.0427 21.9284 16.0161 21.8753C16.0002 21.7145 16.0002 21.7145 15.9966 21.5286C15.9946 21.4675 15.9925 21.4064 15.9905 21.3434C16.0534 20.9229 16.3867 20.8707 16.7557 20.8848ZM15.8727 23.4726C15.5592 23.8014 15.4033 24.1541 15.3911 24.6097C15.456 25.1001 15.6545 25.3932 16.0381 25.6961C16.3891 25.9195 16.7876 25.9113 17.188 25.8597C17.5842 25.7091 17.8895 25.4634 18.0767 25.0799C18.205 24.6651 18.2002 24.2341 18.0034 23.8431C17.7516 23.4681 17.432 23.2526 17.0024 23.1253C16.5748 23.1253 16.214 23.2038 15.8727 23.4726Z" fill="#FE0316"/>
<path d="M21.5628 18.0469C22.1572 18.4521 22.6629 18.9684 23.1664 19.4782C23.2883 19.6015 23.4109 19.7242 23.5335 19.8468C24.2079 20.5245 24.2079 20.5245 24.2435 20.8447C24.2123 21.1625 24.1499 21.2776 23.9066 21.4844C23.516 21.5323 23.3644 21.5441 23.0412 21.3113C22.9643 21.2327 22.889 21.1524 22.8153 21.0709C22.7743 21.0285 22.7333 20.986 22.6911 20.9423C22.5608 20.807 22.4328 20.6698 22.305 20.5322C22.1358 20.3529 21.9657 20.1744 21.7948 19.9967C21.7542 19.9544 21.7136 19.9121 21.6717 19.8685C21.3065 19.495 20.8646 19.077 20.3128 19.0625C20.058 19.0758 20.058 19.0758 19.8441 19.2188C19.688 19.5081 19.6657 19.7874 19.7186 20.109C19.9257 20.7402 20.4007 21.1825 20.8597 21.6406C20.9077 21.6888 20.9557 21.7369 21.0051 21.7864C21.3021 22.084 21.3021 22.084 21.6012 22.3794C22.0209 22.7926 22.0209 22.7926 22.056 23.1153C22.0316 23.3594 22.0316 23.3594 21.8997 23.5401C21.6928 23.691 21.5847 23.7439 21.3284 23.75C20.8271 23.5685 20.499 23.1859 20.1331 22.8147C20.0646 22.746 19.996 22.6773 19.9255 22.6066C19.7443 22.4248 19.5638 22.2425 19.3834 22.06C19.1993 21.8741 19.0144 21.689 18.8295 21.5038C18.6894 21.363 18.5494 21.2221 18.4094 21.0813C18.343 21.0144 18.2765 20.9476 18.208 20.8788C18.1469 20.817 18.0859 20.7552 18.023 20.6915C17.9691 20.6371 17.9151 20.5826 17.8596 20.5265C17.6412 20.2889 17.6253 20.0846 17.6294 19.7635C17.6566 19.6094 17.6566 19.6094 17.8275 19.419C18.0472 19.2969 18.0472 19.2969 18.2474 19.2774C18.4444 19.2392 18.4444 19.2392 18.5208 19.0894C18.5739 18.9783 18.6257 18.8667 18.6765 18.7546C18.9049 18.2572 19.2842 18.033 19.7659 17.8125C20.4137 17.6171 20.9682 17.7609 21.5628 18.0469Z" fill="#FE0316"/>
<path d="M13.1244 24.8443C13.3496 25.0025 13.4232 25.1157 13.5102 25.3765C13.5153 25.6401 13.4488 25.7738 13.3368 26.0067C13.2177 26.3582 13.2199 26.7468 13.2807 27.1099C13.4868 27.4561 13.7243 27.7252 14.014 28.0038C14.0945 28.0823 14.1751 28.1609 14.2555 28.2395C14.3813 28.3614 14.5072 28.4829 14.6336 28.6041C14.7565 28.7223 14.8785 28.8415 15.0003 28.9608C15.0732 29.031 15.1461 29.1013 15.2212 29.1737C15.3981 29.3852 15.4559 29.4933 15.4682 29.7662C15.2903 30.2067 15.2903 30.2067 15.0775 30.313C14.8516 30.3601 14.7481 30.3727 14.5307 30.313C13.8233 29.7992 13.2143 29.0894 12.5976 28.4725C12.4199 28.295 12.2416 28.1182 12.0633 27.9414C11.9499 27.8281 11.8364 27.7149 11.723 27.6015C11.6433 27.5227 11.6433 27.5227 11.562 27.4422C11.5129 27.3929 11.4639 27.3436 11.4133 27.2928C11.3702 27.2498 11.3271 27.2068 11.2827 27.1625C11.0723 26.9157 11.0133 26.769 11.0248 26.441C11.0932 26.1724 11.0932 26.1724 11.2201 26.021C11.4705 25.909 11.6816 25.9224 11.9525 25.938C11.9706 25.8853 11.9886 25.8325 12.0072 25.7781C12.2154 25.2086 12.4266 24.7255 13.1244 24.8443Z" fill="#FE0316"/>
</g>
<defs>
<clipPath id="clip0_411_10143">
<rect width="40" height="40" fill="white"/>
</clipPath>
</defs>
</svg>
