<svg width="16" height="20" viewBox="0 0 16 20" fill="none" xmlns="http://www.w3.org/2000/svg">
<path d="M8 0C5.87904 0.00245748 3.84566 0.831051 2.34591 2.30402C0.846165 3.77699 0.00250718 5.77405 5.02122e-06 7.85714C-0.00194504 9.55935 0.564156 11.2153 1.61164 12.5714C1.61164 12.5714 1.82982 12.8536 1.86546 12.8943L8 20L14.1375 12.8907C14.1695 12.8529 14.3884 12.5714 14.3884 12.5714L14.3891 12.5693C15.4359 11.2136 16.0017 9.55854 16 7.85714C15.9975 5.77405 15.1538 3.77699 13.6541 2.30402C12.1543 0.831051 10.121 0.00245748 8 0ZM8 10.7143C7.42464 10.7143 6.86219 10.5467 6.3838 10.2328C5.9054 9.91882 5.53253 9.4726 5.31235 8.95052C5.09217 8.42845 5.03456 7.85397 5.14681 7.29974C5.25906 6.74551 5.53612 6.23642 5.94296 5.83684C6.34981 5.43726 6.86816 5.16514 7.43247 5.0549C7.99677 4.94466 8.58169 5.00124 9.11326 5.21749C9.64483 5.43374 10.0992 5.79994 10.4188 6.2698C10.7385 6.73965 10.9091 7.29205 10.9091 7.85714C10.9081 8.61461 10.6013 9.34079 10.056 9.8764C9.51062 10.412 8.77124 10.7133 8 10.7143Z" fill="white"/>
</svg>
