<svg width="40" height="40" viewBox="0 0 40 40" fill="none" xmlns="http://www.w3.org/2000/svg">
<path fill-rule="evenodd" clip-rule="evenodd" d="M20.0013 6.25C14.0613 6.25 9.58464 10.3417 9.58464 15V17.1017C9.7213 17.09 9.8613 17.0833 10.0013 17.0833H15.0013C15.3328 17.0833 15.6508 17.215 15.8852 17.4495C16.1196 17.6839 16.2513 18.0018 16.2513 18.3333V30C16.2513 30.3315 16.1196 30.6495 15.8852 30.8839C15.6508 31.1183 15.3328 31.25 15.0013 31.25H10.0013C8.78573 31.25 7.61994 30.7671 6.7604 29.9076C5.90085 29.048 5.41797 27.8822 5.41797 26.6667V21.6667C5.41797 20.2433 6.06797 18.9717 7.08464 18.1317V15C7.08464 8.61333 13.0546 3.75 20.0013 3.75C26.948 3.75 32.918 8.61333 32.918 15V18.1317C33.9346 18.9717 34.5846 20.2433 34.5846 21.6667V26.6667C34.5846 27.8822 34.1017 29.048 33.2422 29.9076C32.3827 30.7671 31.2169 31.25 30.0013 31.25H25.0013C24.6698 31.25 24.3518 31.1183 24.1174 30.8839C23.883 30.6495 23.7513 30.3315 23.7513 30V18.3333C23.7513 18.0018 23.883 17.6839 24.1174 17.4495C24.3518 17.215 24.6698 17.0833 25.0013 17.0833H30.0013C30.1413 17.0833 30.2813 17.09 30.418 17.1017V15C30.418 10.3417 25.9413 6.25 20.0013 6.25ZM10.0013 19.5833C8.8513 19.5833 7.91797 20.5167 7.91797 21.6667V26.6667C7.91797 27.8167 8.8513 28.75 10.0013 28.75H13.7513V19.5833H10.0013ZM32.0846 21.6667C32.0846 20.5167 31.1513 19.5833 30.0013 19.5833H26.2513V28.75H30.0013C31.1513 28.75 32.0846 27.8167 32.0846 26.6667V21.6667Z" fill="#FE0316"/>
</svg>
