<svg width="70" height="70" viewBox="0 0 70 70" fill="none" xmlns="http://www.w3.org/2000/svg">
<path d="M35.8995 3.74887C35.6277 3.58601 35.3168 3.5 35 3.5C34.6832 3.5 34.3723 3.58601 34.1005 3.74887L10.395 17.9694C9.86767 18.2867 9.39517 18.66 8.9775 19.0894L35 34.7134L61.0225 19.0999C60.5997 18.6642 60.122 18.2853 59.6015 17.9729L35.8995 3.74887ZM62.755 22.1379L35.8995 38.2519C35.6277 38.4147 35.3168 38.5007 35 38.5007C34.6832 38.5007 34.3723 38.4147 34.1005 38.2519L7.245 22.1309C7.08167 22.7305 7 23.3454 7 23.9754V47.2504C7 49.571 7.92187 51.7966 9.56282 53.4376C11.2038 55.0785 13.4294 56.0004 15.75 56.0004H54.25C56.5706 56.0004 58.7962 55.0785 60.4372 53.4376C62.0781 51.7966 63 49.571 63 47.2504V23.9754C63 23.3454 62.9183 22.7329 62.755 22.1379Z" fill="#222222"/>
</svg>
