<svg width="38" height="24" viewBox="0 0 38 24" fill="none" xmlns="http://www.w3.org/2000/svg">
<g clip-path="url(#clip0_133_2819)">
<path opacity="0.07" d="M35 0H3C1.3 0 0 1.3 0 3V21C0 22.7 1.4 24 3 24H35C36.7 24 38 22.7 38 21V3C38 1.3 36.6 0 35 0Z" fill="black"/>
<path d="M35 1C36.1 1 37 1.9 37 3V21C37 22.1 36.1 23 35 23H3C1.9 23 1 22.1 1 21V3C1 1.9 1.9 1 3 1H35Z" fill="#006FCF"/>
<path d="M22.0117 19.9356V11.5146L36.9997 11.5276V13.8536L35.2677 15.7056L36.9997 17.5726V19.9476H34.2337L32.7637 18.3256L31.3037 19.9536L22.0117 19.9336V19.9356Z" fill="white"/>
<path d="M23.0117 19.0124V12.4424H28.5837V13.9554H24.8157V14.9834H28.4937V16.4714H24.8157V17.4814H28.5837V19.0124H23.0117Z" fill="#006FCF"/>
<path d="M28.5566 19.0124L31.6396 15.7234L28.5566 12.4414H30.9426L32.8266 14.5244L34.7166 12.4424H36.9996V12.4934L33.9826 15.7234L36.9996 18.9204V19.0134H34.6926L32.7756 16.9104L30.8776 19.0144H28.5566V19.0124Z" fill="#006FCF"/>
<path d="M22.71 4.04004H26.324L27.593 6.92104V4.04004H32.053L32.823 6.19904L33.594 4.04004H37V12.461H19L22.71 4.04004Z" fill="white"/>
<path d="M23.3945 4.95508L20.4785 11.5211H22.4785L23.0285 10.2061H26.0085L26.5585 11.5211H28.6085L25.7045 4.95508H23.3945ZM23.6445 8.73208L24.5195 6.64208L25.3925 8.73208H23.6445Z" fill="#006FCF"/>
<path d="M28.5801 11.5201V4.95312L31.3911 4.96312L32.8391 9.00012L34.2951 4.95412H36.9991V11.5191L35.2591 11.5351V7.02513L33.6151 11.5191H32.0251L30.3491 7.01013V11.5201H28.5811H28.5801Z" fill="#006FCF"/>
</g>
<defs>
<clipPath id="clip0_133_2819">
<rect width="38" height="24" fill="white"/>
</clipPath>
</defs>
</svg>
