<svg width="46" height="46" viewBox="0 0 46 46" fill="none" xmlns="http://www.w3.org/2000/svg">
<path d="M27 30.8396L13.7111 44.2812C13.3197 44.6771 12.6803 44.6771 12.2889 44.2812L9.19507 41.1518C8.80991 40.7622 8.80991 40.1353 9.19507 39.7457L40.2889 8.29451C40.6803 7.89858 41.3197 7.89858 41.7111 8.29451L44.8049 11.4239C45.1901 11.8134 45.1901 12.4404 44.8049 12.83L34.5 23.2534" stroke="#FE0316" stroke-width="1.5" stroke-linecap="round"/>
<path d="M10 24.7705L2 32.8625L6.5 37.4142L17.5 26.2877" stroke="#FE0316" stroke-width="1.5" stroke-linecap="round"/>
<path d="M20 24.2644L37.8049 6.25478C38.1901 5.8652 38.1901 5.23825 37.8049 4.84867L34.7111 1.71931C34.3197 1.32338 33.6803 1.32338 33.2889 1.71931L23.5 11.6207" stroke="#FE0316" stroke-width="1.5" stroke-linecap="round"/>
<path d="M38.1747 20.7246C38.4851 20.7911 38.4851 20.7911 38.7766 20.8767C38.9495 21.557 38.9334 22.213 38.9089 22.9088C38.9036 23.0895 38.9036 23.0895 38.8981 23.2738C38.8867 23.6565 38.874 24.0391 38.8613 24.4218C38.8533 24.6821 38.8453 24.9423 38.8375 25.2026C38.8181 25.8389 38.7977 26.4752 38.7766 27.1115C38.9614 27.0492 39.1462 26.987 39.3366 26.9228C39.6885 26.8043 40.0403 26.6859 40.3922 26.5677C40.9728 26.3728 41.5527 26.1764 42.1309 25.9745C42.2302 25.9402 42.3295 25.9058 42.4318 25.8704C42.7018 25.7768 42.9716 25.6824 43.2413 25.5878C43.7593 25.4338 44.2605 25.3506 44.7961 25.2867C44.9184 25.6205 44.9184 25.6205 44.9466 26.047C44.6456 26.407 44.6456 26.407 44.1942 26.7883C44.0279 26.9327 43.8622 27.0777 43.6969 27.2232C43.6075 27.3015 43.5181 27.3798 43.426 27.4605C42.7973 28.032 42.2131 28.6513 41.6212 29.2612C41.4836 29.4021 41.4836 29.4021 41.3431 29.5458C41.2209 29.672 41.2209 29.672 41.0962 29.8007C40.8835 30.0008 40.8835 30.0008 40.5825 30.1529C40.8013 30.2634 40.8013 30.2634 41.0245 30.3762C42.683 31.2142 44.3415 32.0521 46 32.8901C46 33.141 46 33.3919 46 33.6504C45.3979 33.8571 44.7907 33.8093 44.1648 33.7894C44.0461 33.7862 43.9274 33.783 43.8051 33.7797C43.5549 33.7726 43.3047 33.7652 43.0546 33.7574C42.6709 33.7455 42.2871 33.7353 41.9034 33.7253C41.6602 33.7183 41.417 33.7111 41.1739 33.7039C41.0588 33.7009 40.9437 33.6979 40.8252 33.6948C40.0152 33.668 40.0152 33.668 39.6796 33.4984C39.7217 33.615 39.7638 33.7316 39.8071 33.8518C40.2175 34.9997 40.612 36.1525 40.9963 37.3096C41.0423 37.447 41.0883 37.5845 41.1357 37.7261C41.2005 37.9225 41.2005 37.9225 41.2667 38.1228C41.3053 38.2391 41.3438 38.3553 41.3836 38.4751C41.4928 38.846 41.5896 39.1964 41.6359 39.5811C41.5366 39.6815 41.4373 39.7819 41.3349 39.8853C40.8544 39.88 40.6997 39.7006 40.3532 39.3607C40.2091 39.1976 40.0661 39.0334 39.9241 38.8683C39.2249 38.0779 38.5056 37.3151 37.7609 36.5683C37.6675 36.4745 37.5741 36.3808 37.4779 36.2842C37.259 36.0649 37.0397 35.8461 36.8203 35.6273C36.4118 36.0402 36.2055 36.5343 35.955 37.053C35.8473 37.2738 35.7395 37.4945 35.6317 37.7153C35.5784 37.825 35.5251 37.9346 35.4702 38.0476C35.1837 38.6345 34.8897 39.2176 34.5971 39.8015C34.4176 40.1788 34.2606 40.5593 34.1116 40.9497C33.8608 40.9562 33.6099 40.9559 33.3591 40.9497C33.2086 40.7977 33.2086 40.7977 33.2054 40.2081C33.2118 39.945 33.219 39.682 33.2269 39.419C33.2322 39.2117 33.2322 39.2117 33.2376 39.0002C33.2492 38.5571 33.2618 38.1139 33.2745 37.6708C33.2825 37.3711 33.2904 37.0714 33.2983 36.7717C33.3178 36.0354 33.3382 35.2991 33.3591 34.5629C33.1732 34.6368 33.1732 34.6368 32.9834 34.7121C31.9698 35.1111 30.9565 35.4851 29.9168 35.8079C29.7387 35.8642 29.7387 35.8642 29.557 35.9217C29.2196 36.0279 28.8816 36.1318 28.5436 36.2356C28.4415 36.2685 28.3394 36.3013 28.2342 36.3352C27.5239 36.5568 27.5239 36.5568 27.1892 36.3877C27.151 36.0443 27.151 36.0443 27.1892 35.6273C27.439 35.3339 27.439 35.3339 27.8005 35.0381C28.5321 34.4111 29.2134 33.7498 29.8885 33.0612C29.9864 32.9616 30.0843 32.8621 30.1851 32.7595C30.3625 32.5789 30.5397 32.3981 30.7168 32.2172C30.9447 31.9845 31.1735 31.7528 31.4028 31.5215C31.0613 31.3468 30.7195 31.1726 30.3776 30.9987C30.2718 30.9447 30.166 30.8906 30.0569 30.8349C29.4444 30.5243 28.8285 30.2257 28.2038 29.9408C28.074 29.881 27.9442 29.8212 27.8104 29.7596C27.5557 29.6428 27.3002 29.5279 27.0438 29.4148C26.8693 29.3344 26.8693 29.3344 26.6913 29.2523C26.5876 29.2059 26.4839 29.1595 26.3771 29.1117C26.1358 28.9363 26.1358 28.9363 26.0164 28.6314C25.9853 28.328 25.9853 28.328 26.1358 28.0239C28.1719 28.0239 30.2079 28.0239 32.3057 28.0239C32.1474 27.5409 31.9891 27.0579 31.8261 26.5602C31.7744 26.4023 31.7228 26.2444 31.6696 26.0817C31.3423 25.0868 30.9916 24.1054 30.6128 23.1292C30.4904 22.6654 30.5177 22.3971 30.6504 21.9412C31.236 21.9568 31.5066 22.1578 31.8948 22.5696C32.0741 22.7706 32.2517 22.9731 32.428 23.1767C32.6147 23.3862 32.8018 23.5953 32.9894 23.804C33.0789 23.9036 33.1684 24.0032 33.2606 24.1058C33.6349 24.5093 34.0388 24.8665 34.4654 25.2118C34.791 25.5096 35.0479 25.8484 35.3155 26.1991C36.1145 24.6778 36.9079 23.1549 37.6592 21.6088C38.0091 20.892 38.0091 20.892 38.1747 20.7246ZM37.7232 23.766C37.528 24.1267 37.3338 24.4879 37.1401 24.8495C37.0852 24.9506 37.0303 25.0518 36.9738 25.156C36.4461 26.1448 36.1782 26.9382 36.1996 28.0809C36.2023 28.2703 36.205 28.4597 36.2078 28.6548C36.2113 28.7979 36.2148 28.9409 36.2184 29.0884C35.5036 29.3925 35.5036 29.3925 35.165 29.3925C35.1805 29.2232 35.196 29.0538 35.212 28.8793C35.1952 27.4991 34.3883 26.5712 33.4626 25.6478C33.1801 25.372 32.8946 25.1005 32.6067 24.8305C32.4107 25.4246 32.5752 25.8103 32.7666 26.3797C32.818 26.5332 32.818 26.5332 32.8703 26.6899C33.2251 27.6959 33.6852 28.4658 34.5442 29.1074C34.864 29.3925 34.864 29.3925 34.911 29.8867C34.8955 30.0247 34.88 30.1628 34.864 30.3049C34.1693 30.1119 33.6377 29.8145 33.0476 29.4109C32.5252 29.1043 32.0342 29.0697 31.4381 29.0735C31.3042 29.074 31.1704 29.0745 31.0325 29.075C30.894 29.0763 30.7555 29.0776 30.6128 29.0789C30.4015 29.0799 30.4015 29.0799 30.186 29.081C29.8392 29.0827 29.4923 29.0852 29.1455 29.0884C29.6927 29.5649 30.2278 29.8818 30.8855 30.1814C31.1372 30.2975 31.1372 30.2975 31.394 30.416C32.1255 30.7229 32.6757 30.7787 33.472 30.7706C33.6481 30.7693 33.8243 30.7679 34.0058 30.7665C34.2071 30.7638 34.2071 30.7638 34.4125 30.7611C34.4701 31.013 34.52 31.2667 34.563 31.5215C34.3159 31.7712 33.9904 31.7342 33.6507 31.7781C32.0651 32.0651 31.1283 33.2793 30.0484 34.4108C30.4567 34.6171 30.6914 34.4862 31.1099 34.3522C31.2097 34.3182 31.3094 34.2842 31.4122 34.2492C31.5137 34.2147 31.6152 34.1802 31.7198 34.1447C32.7928 33.7622 33.7754 33.2694 34.4125 32.2818C34.4125 32.1815 34.4125 32.0811 34.4125 31.9777C34.8595 32.053 34.8595 32.053 35.3155 32.1298C35.3531 32.4624 35.3531 32.4624 35.3155 32.8901C35.2254 33.003 35.1354 33.1159 35.0427 33.2323C34.2692 34.2148 34.1975 35.3343 34.2338 36.5493C34.2359 36.6809 34.2379 36.8125 34.24 36.9481C34.2453 37.2683 34.2534 37.5883 34.2621 37.9084C34.6807 37.3906 34.9694 36.8233 35.259 36.2261C35.306 36.1311 35.3529 36.0362 35.4013 35.9383C35.8064 35.1116 35.9324 34.5538 35.9174 33.6314C35.9118 33.283 35.9104 32.9344 35.9174 32.586C36.0679 32.4339 36.0679 32.4339 36.4535 32.4244C36.5746 32.4275 36.6956 32.4307 36.8203 32.4339C36.8316 32.5388 36.8428 32.6436 36.8544 32.7517C37.1193 34.665 38.1761 35.7017 39.5291 36.996C39.7251 36.4018 39.5606 36.0161 39.3692 35.4468C39.335 35.3444 39.3007 35.242 39.2654 35.1365C38.9092 34.1265 38.4436 33.3646 37.5916 32.7095C37.2718 32.4339 37.2718 32.4339 37.2248 32.0157C37.2403 31.9028 37.2558 31.7899 37.2718 31.6736C37.5163 31.55 37.5163 31.55 37.8737 31.5215C38.1 31.7054 38.3256 31.8907 38.5409 32.0876C39.5042 32.8814 41.2052 32.8504 42.3883 32.738C42.5373 32.6377 42.6863 32.5373 42.8398 32.4339C41.1053 31.4883 39.5935 30.68 37.5728 31.0653C37.5728 30.7642 37.5728 30.4631 37.5728 30.1529C37.6674 30.1397 37.7621 30.1266 37.8596 30.1131C39.4351 29.8517 40.5383 29.0293 41.6359 27.8718C41.8234 27.5482 41.8234 27.5482 41.9369 27.2636C40.5005 27.4939 39.118 27.9194 38.0242 28.9363C37.9466 29.0775 37.869 29.2186 37.7891 29.364C37.7177 29.4738 37.6463 29.5836 37.5728 29.6967C37.0931 29.7442 37.0931 29.7442 36.6698 29.6967C36.6698 29.3956 36.6698 29.0945 36.6698 28.7842C36.8188 28.7341 36.9678 28.6839 37.1213 28.6322C37.3035 28.3459 37.3035 28.3459 37.4411 27.9954C37.4911 27.8803 37.5412 27.7653 37.5927 27.6467C37.891 26.7711 37.8931 25.9157 37.8831 25.0015C37.8825 24.8824 37.8818 24.7632 37.8811 24.6404C37.8793 24.3489 37.8766 24.0574 37.8737 23.766C37.8241 23.766 37.7744 23.766 37.7232 23.766Z" fill="#FE0316"/>
<path d="M16.1747 7.5752C16.4851 7.64173 16.4851 7.64173 16.7766 7.72726C16.9495 8.4076 16.9334 9.06359 16.9089 9.7594C16.9036 9.94005 16.9036 9.94005 16.8981 10.1244C16.8867 10.5071 16.874 10.8897 16.8613 11.2724C16.8533 11.5326 16.8453 11.7929 16.8375 12.0532C16.8181 12.6895 16.7977 13.3258 16.7766 13.9621C16.9614 13.8998 17.1462 13.8376 17.3366 13.7734C17.6885 13.6549 18.0403 13.5365 18.3922 13.4183C18.9728 13.2234 19.5527 13.027 20.1309 12.8251C20.2302 12.7908 20.3295 12.7564 20.4318 12.721C20.7018 12.6274 20.9716 12.5329 21.2413 12.4384C21.7593 12.2844 22.2605 12.2012 22.7961 12.1373C22.9184 12.4711 22.9184 12.4711 22.9466 12.8976C22.6456 13.2576 22.6456 13.2576 22.1942 13.6389C22.0279 13.7833 21.8622 13.9283 21.6969 14.0738C21.6075 14.1521 21.5181 14.2304 21.426 14.3111C20.7973 14.8826 20.2131 15.5019 19.6212 16.1118C19.4836 16.2526 19.4836 16.2526 19.3431 16.3964C19.2209 16.5225 19.2209 16.5225 19.0962 16.6513C18.8835 16.8514 18.8835 16.8514 18.5825 17.0035C18.8013 17.114 18.8013 17.114 19.0245 17.2268C20.683 18.0648 22.3415 18.9027 24 19.7407C24 19.9916 24 20.2425 24 20.501C23.3979 20.7077 22.7907 20.6599 22.1648 20.64C22.0461 20.6368 21.9274 20.6336 21.8051 20.6302C21.5549 20.6232 21.3047 20.6158 21.0546 20.608C20.6709 20.5961 20.2871 20.5859 19.9034 20.5759C19.6602 20.5688 19.417 20.5617 19.1739 20.5545C19.0588 20.5515 18.9437 20.5485 18.8252 20.5453C18.0152 20.5185 18.0152 20.5185 17.6796 20.349C17.7217 20.4656 17.7638 20.5822 17.8071 20.7024C18.2175 21.8503 18.612 23.0031 18.9963 24.1602C19.0423 24.2976 19.0883 24.4351 19.1357 24.5767C19.2005 24.7731 19.2005 24.7731 19.2667 24.9734C19.3053 25.0896 19.3438 25.2059 19.3836 25.3257C19.4928 25.6966 19.5896 26.047 19.6359 26.4317C19.5366 26.5321 19.4373 26.6324 19.3349 26.7358C18.8544 26.7305 18.6997 26.5511 18.3532 26.2113C18.2091 26.0482 18.0661 25.884 17.9241 25.7189C17.2249 24.9285 16.5056 24.1657 15.7609 23.4188C15.6675 23.3251 15.5741 23.2314 15.4779 23.1348C15.259 22.9155 15.0397 22.6967 14.8203 22.4779C14.4118 22.8907 14.2055 23.3848 13.955 23.9036C13.8473 24.1244 13.7395 24.3451 13.6317 24.5659C13.5784 24.6755 13.5251 24.7852 13.4702 24.8982C13.1837 25.4851 12.8897 26.0682 12.5971 26.6521C12.4176 27.0294 12.2606 27.4099 12.1116 27.8003C11.8608 27.8068 11.6099 27.8065 11.3591 27.8003C11.2086 27.6483 11.2086 27.6483 11.2054 27.0587C11.2118 26.7956 11.219 26.5326 11.2269 26.2695C11.2322 26.0623 11.2322 26.0623 11.2376 25.8508C11.2492 25.4076 11.2618 24.9645 11.2745 24.5213C11.2825 24.2217 11.2904 23.922 11.2983 23.6223C11.3178 22.886 11.3382 22.1497 11.3591 21.4134C11.1732 21.4873 11.1732 21.4873 10.9834 21.5627C9.9698 21.9617 8.95652 22.3357 7.91676 22.6585C7.73868 22.7148 7.73868 22.7148 7.557 22.7723C7.21963 22.8784 6.88165 22.9824 6.54357 23.0862C6.44148 23.1191 6.3394 23.1519 6.23422 23.1858C5.52394 23.4074 5.52394 23.4074 5.18919 23.2383C5.15098 22.8949 5.15098 22.8949 5.18919 22.4779C5.43902 22.1845 5.43902 22.1845 5.80054 21.8887C6.53208 21.2617 7.21341 20.6004 7.88854 19.9118C7.98642 19.8122 8.0843 19.7127 8.18514 19.6101C8.36251 19.4295 8.53974 19.2487 8.71677 19.0677C8.94469 18.8351 9.17353 18.6034 9.40281 18.3721C9.0613 18.1974 8.71954 18.0232 8.37762 17.8493C8.27179 17.7953 8.16596 17.7412 8.05692 17.6855C7.44438 17.3749 6.82847 17.0763 6.2038 16.7914C6.07398 16.7316 5.94417 16.6718 5.81042 16.6102C5.5557 16.4934 5.30017 16.3785 5.04381 16.2654C4.86931 16.185 4.86931 16.185 4.69129 16.1029C4.58762 16.0565 4.48394 16.0101 4.37713 15.9623C4.13578 15.7869 4.13578 15.7869 4.01641 15.482C3.9853 15.1786 3.9853 15.1786 4.13578 14.8745C6.17186 14.8745 8.20795 14.8745 10.3057 14.8745C10.1474 14.3915 9.98914 13.9085 9.82605 13.4108C9.77442 13.2529 9.72278 13.095 9.66958 12.9323C9.34233 11.9374 8.99159 10.956 8.61276 9.97978C8.49035 9.51594 8.51767 9.24768 8.65038 8.79174C9.23601 8.80735 9.50663 9.00836 9.89483 9.42022C10.0741 9.62122 10.2517 9.82366 10.428 10.0273C10.6147 10.2368 10.8018 10.4459 10.9894 10.6546C11.0789 10.7542 11.1684 10.8537 11.2606 10.9563C11.6349 11.3599 12.0388 11.7171 12.4654 12.0624C12.791 12.3602 13.0479 12.6989 13.3155 13.0497C14.1145 11.5284 14.9079 10.0055 15.6592 8.45939C16.0091 7.74256 16.0091 7.74256 16.1747 7.5752ZM15.7232 10.6166C15.528 10.9773 15.3338 11.3385 15.1401 11.7001C15.0852 11.8012 15.0303 11.9024 14.9738 12.0066C14.4461 12.9954 14.1782 13.7888 14.1996 14.9315C14.2023 15.1209 14.205 15.3102 14.2078 15.5053C14.2113 15.6484 14.2148 15.7915 14.2184 15.939C13.5036 16.2431 13.5036 16.2431 13.165 16.2431C13.1805 16.0737 13.196 15.9044 13.212 15.7299C13.1952 14.3497 12.3883 13.4218 11.4626 12.4984C11.1801 12.2226 10.8946 11.9511 10.6067 11.681C10.4107 12.2752 10.5752 12.6609 10.7666 13.2302C10.818 13.3838 10.818 13.3838 10.8703 13.5405C11.2251 14.5465 11.6852 15.3164 12.5442 15.958C12.864 16.2431 12.864 16.2431 12.911 16.7373C12.8955 16.8753 12.88 17.0133 12.864 17.1555C12.1693 16.9625 11.6377 16.6651 11.0476 16.2615C10.5252 15.9548 10.0342 15.9203 9.43808 15.9241C9.30423 15.9246 9.17038 15.9251 9.03247 15.9256C8.89397 15.9269 8.75546 15.9282 8.61276 15.9295C8.4015 15.9305 8.4015 15.9305 8.18599 15.9315C7.83915 15.9333 7.49234 15.9358 7.14551 15.939C7.69274 16.4155 8.22777 16.7324 8.88551 17.032C9.13721 17.1481 9.13721 17.1481 9.39399 17.2666C10.1255 17.5734 10.6757 17.6293 11.472 17.6212C11.6481 17.6199 11.8243 17.6185 12.0058 17.6171C12.2071 17.6144 12.2071 17.6144 12.4125 17.6117C12.4701 17.8636 12.52 18.1173 12.563 18.3721C12.3159 18.6218 11.9904 18.5848 11.6507 18.6287C10.0651 18.9157 9.12835 20.1299 8.04843 21.2614C8.45674 21.4677 8.69139 21.3368 9.10992 21.2028C9.20968 21.1688 9.30943 21.1348 9.41221 21.0998C9.51372 21.0653 9.61522 21.0308 9.7198 20.9953C10.7928 20.6128 11.7754 20.12 12.4125 19.1324C12.4125 19.032 12.4125 18.9317 12.4125 18.8283C12.8595 18.9035 12.8595 18.9035 13.3155 18.9803C13.3531 19.313 13.3531 19.313 13.3155 19.7407C13.2254 19.8536 13.1354 19.9665 13.0427 20.0828C12.2692 21.0654 12.1975 22.1849 12.2338 23.3998C12.2359 23.5315 12.2379 23.6631 12.24 23.7987C12.2453 24.1188 12.2534 24.4389 12.2621 24.759C12.6807 24.2412 12.9694 23.6739 13.259 23.0767C13.306 22.9817 13.3529 22.8867 13.4013 22.7889C13.8064 21.9622 13.9324 21.4044 13.9174 20.482C13.9118 20.1336 13.9104 19.785 13.9174 19.4365C14.0679 19.2845 14.0679 19.2845 14.4535 19.275C14.5746 19.2781 14.6956 19.2812 14.8203 19.2845C14.8316 19.3894 14.8428 19.4942 14.8544 19.6023C15.1193 21.5156 16.1761 22.5523 17.5291 23.8465C17.7251 23.2524 17.5606 22.8667 17.3692 22.2973C17.335 22.195 17.3007 22.0926 17.2654 21.9871C16.9092 20.9771 16.4436 20.2152 15.5916 19.5601C15.2718 19.2845 15.2718 19.2845 15.2248 18.8663C15.2403 18.7534 15.2558 18.6405 15.2718 18.5241C15.5163 18.4006 15.5163 18.4006 15.8737 18.3721C16.1 18.556 16.3256 18.7413 16.5409 18.9382C17.5042 19.7319 19.2052 19.7009 20.3883 19.5886C20.5373 19.4883 20.6863 19.3879 20.8398 19.2845C19.1053 18.3389 17.5935 17.5306 15.5728 17.9159C15.5728 17.6148 15.5728 17.3137 15.5728 17.0035C15.6674 16.9903 15.7621 16.9772 15.8596 16.9637C17.4351 16.7023 18.5383 15.8799 19.6359 14.7224C19.8234 14.3988 19.8234 14.3988 19.9369 14.1141C18.5005 14.3444 17.118 14.7699 16.0242 15.7869C15.9466 15.928 15.869 16.0692 15.7891 16.2146C15.7177 16.3244 15.6463 16.4341 15.5728 16.5472C15.0931 16.5948 15.0931 16.5948 14.6698 16.5472C14.6698 16.2461 14.6698 15.9451 14.6698 15.6348C14.8188 15.5847 14.9678 15.5345 15.1213 15.4828C15.3035 15.1965 15.3035 15.1965 15.4411 14.846C15.4911 14.7309 15.5412 14.6158 15.5927 14.4973C15.891 13.6217 15.8931 12.7662 15.8831 11.8521C15.8825 11.7329 15.8818 11.6138 15.8811 11.491C15.8793 11.1995 15.8766 10.908 15.8737 10.6166C15.8241 10.6166 15.7744 10.6166 15.7232 10.6166Z" fill="#FE0316"/>
</svg>
