<svg width="30" height="30" viewBox="0 0 30 30" fill="none" xmlns="http://www.w3.org/2000/svg">
<path d="M17.8571 5H23.5714C23.9503 5 24.3137 5.15051 24.5816 5.41842C24.8495 5.68633 25 6.04969 25 6.42857V12.1429C25 12.5217 24.8495 12.8851 24.5816 13.153C24.3137 13.4209 23.9503 13.5714 23.5714 13.5714H17.8571C17.4783 13.5714 17.1149 13.4209 16.847 13.153C16.5791 12.8851 16.4286 12.5217 16.4286 12.1429V6.42857C16.4286 6.04969 16.5791 5.68633 16.847 5.41842C17.1149 5.15051 17.4783 5 17.8571 5ZM6.42857 5H12.1429C12.5217 5 12.8851 5.15051 13.153 5.41842C13.4209 5.68633 13.5714 6.04969 13.5714 6.42857V12.1429C13.5714 12.5217 13.4209 12.8851 13.153 13.153C12.8851 13.4209 12.5217 13.5714 12.1429 13.5714H6.42857C6.04969 13.5714 5.68633 13.4209 5.41842 13.153C5.15051 12.8851 5 12.5217 5 12.1429V6.42857C5 6.04969 5.15051 5.68633 5.41842 5.41842C5.68633 5.15051 6.04969 5 6.42857 5ZM17.8571 16.4286H23.5714C23.9503 16.4286 24.3137 16.5791 24.5816 16.847C24.8495 17.1149 25 17.4783 25 17.8571V23.5714C25 23.9503 24.8495 24.3137 24.5816 24.5816C24.3137 24.8495 23.9503 25 23.5714 25H17.8571C17.4783 25 17.1149 24.8495 16.847 24.5816C16.5791 24.3137 16.4286 23.9503 16.4286 23.5714V17.8571C16.4286 17.4783 16.5791 17.1149 16.847 16.847C17.1149 16.5791 17.4783 16.4286 17.8571 16.4286ZM6.42857 16.4286H12.1429C12.5217 16.4286 12.8851 16.5791 13.153 16.847C13.4209 17.1149 13.5714 17.4783 13.5714 17.8571V23.5714C13.5714 23.9503 13.4209 24.3137 13.153 24.5816C12.8851 24.8495 12.5217 25 12.1429 25H6.42857C6.04969 25 5.68633 24.8495 5.41842 24.5816C5.15051 24.3137 5 23.9503 5 23.5714V17.8571C5 17.4783 5.15051 17.1149 5.41842 16.847C5.68633 16.5791 6.04969 16.4286 6.42857 16.4286Z" stroke="#FE0316" stroke-width="1.25" stroke-linecap="round" stroke-linejoin="round"/>
</svg>
